<svg width="40" height="40" viewBox="0 0 40 40" fill="none" xmlns="http://www.w3.org/2000/svg">
<g filter="url(#filter0_d_131_1078)">
<path fill-rule="evenodd" clip-rule="evenodd" d="M19.0216 10.0413C16.9313 10.3074 15.1271 11.1307 13.5487 12.5388C12.7366 13.2635 11.94 14.2995 11.4345 15.2887C10.6522 16.8196 10.3078 18.3564 10.3638 20.0664C10.4016 21.2197 10.5978 22.1953 11.0056 23.2568C11.1286 23.5771 11.5163 24.3913 11.6408 24.5907C11.6858 24.6629 11.5944 24.9592 10.8454 27.17C10.3801 28.5437 9.99961 29.7073 10 29.7557C10.0009 29.87 10.1324 30 10.2471 30C10.2968 30 11.5035 29.629 12.9288 29.1755L15.5202 28.351L15.8944 28.5282C16.7912 28.953 17.5778 29.2018 18.5778 29.3769C19.1889 29.4839 20.4629 29.5218 21.1573 29.4537C24.169 29.1582 26.9516 27.4275 28.5384 24.8629C29.8188 22.7933 30.2796 20.3345 29.8349 17.9443C29.4443 15.8446 28.2672 13.795 26.6563 12.4095C25.1984 11.1556 23.5195 10.3768 21.6381 10.0816C21.0818 9.99426 19.5737 9.97108 19.0216 10.0413ZM21.3014 12.1162C24.4586 12.5906 26.9913 14.9034 27.7221 17.9795C27.8985 18.722 27.9388 19.1415 27.9145 19.9849C27.8925 20.75 27.8445 21.0932 27.6699 21.7346C26.6053 25.6466 22.6414 28.0978 18.669 27.3006C17.7128 27.1087 17.144 26.8836 15.9561 26.2271L15.7608 26.1192L14.4524 26.5351C13.7328 26.7638 13.1343 26.9509 13.1224 26.9509C13.1105 26.9509 13.2908 26.3848 13.5232 25.6928C13.7835 24.9176 13.9363 24.4053 13.9213 24.358C13.908 24.3159 13.7917 24.1213 13.663 23.9255C12.8405 22.6743 12.4207 21.253 12.4227 19.7269C12.4255 17.6313 13.2548 15.6877 14.7701 14.2256C16.1209 12.9222 17.657 12.2423 19.705 12.0413C19.9786 12.0144 20.9177 12.0585 21.3014 12.1162ZM17.2057 15.1709C16.8681 15.2231 16.4104 15.3545 16.2367 15.449C15.8602 15.654 15.5129 16.1862 15.3454 16.8148C15.2314 17.2425 15.2316 17.9746 15.3458 18.4033C15.6109 19.3983 16.5428 20.8025 17.7111 21.9674C18.6893 22.9427 19.5688 23.5149 20.7654 23.9543C22.5212 24.5991 23.4169 24.599 24.3778 23.9536C24.9932 23.5403 25.2744 23.0011 25.2849 22.2144C25.2887 21.9296 25.2766 21.858 25.2089 21.7649C25.1122 21.6318 24.7658 21.4444 23.73 20.9645C22.8617 20.5622 22.6552 20.5122 22.4348 20.6509C22.3683 20.6928 22.1464 20.9356 21.9417 21.1906C21.395 21.8714 21.4784 21.8312 21.0418 21.6242C20.3707 21.306 19.7404 20.8316 19.0966 20.1602C18.7754 19.8252 18.2049 19.1177 18.2024 19.0514C18.2019 19.0389 18.3154 18.8982 18.4545 18.7387C18.5936 18.5791 18.7714 18.3278 18.8495 18.1802C19.045 17.8109 19.0318 17.734 18.5929 16.6895C18.1311 15.5906 18.0376 15.4079 17.8731 15.2823C17.7348 15.1766 17.4624 15.1312 17.2057 15.1709Z" fill="#5351B8"/>
</g>
<defs>
<filter id="filter0_d_131_1078" x="0" y="0" width="40" height="40" filterUnits="userSpaceOnUse" color-interpolation-filters="sRGB">
<feFlood flood-opacity="0" result="BackgroundImageFix"/>
<feColorMatrix in="SourceAlpha" type="matrix" values="0 0 0 0 0 0 0 0 0 0 0 0 0 0 0 0 0 0 127 0" result="hardAlpha"/>
<feOffset/>
<feGaussianBlur stdDeviation="5"/>
<feComposite in2="hardAlpha" operator="out"/>
<feColorMatrix type="matrix" values="0 0 0 0 1 0 0 0 0 1 0 0 0 0 1 0 0 0 0.45 0"/>
<feBlend mode="normal" in2="BackgroundImageFix" result="effect1_dropShadow_131_1078"/>
<feBlend mode="normal" in="SourceGraphic" in2="effect1_dropShadow_131_1078" result="shape"/>
</filter>
</defs>
</svg>
