<svg width="13" height="13" viewBox="0 0 13 13" fill="none" xmlns="http://www.w3.org/2000/svg">
<path fill-rule="evenodd" clip-rule="evenodd" d="M0 5.33764C0 8.29387 2.38141 10.6753 5.33764 10.6753C6.66746 10.6753 7.88097 10.1934 8.81371 9.39407L12.4194 12.9998L13 12.4192L9.39426 8.81349C10.1935 7.88077 10.6753 6.66736 10.6753 5.33764C10.6753 2.38141 8.29387 0 5.33764 0C2.38141 0 0 2.38141 0 5.33764ZM0.821176 5.33764C0.821176 2.83306 2.83306 0.821176 5.33764 0.821176C7.84223 0.821176 9.85411 2.83306 9.85411 5.33764C9.85411 7.84223 7.84223 9.85411 5.33764 9.85411C2.83306 9.85411 0.821176 7.84223 0.821176 5.33764Z" fill="#8B8B8B"/>
</svg>
