<svg width="23" height="22" viewBox="0 0 23 22" fill="none" xmlns="http://www.w3.org/2000/svg">
<path fill-rule="evenodd" clip-rule="evenodd" d="M0.337021 9.03293C0.337021 14.0358 4.3671 18.0659 9.36995 18.0659C11.6205 18.0659 13.6742 17.2503 15.2527 15.8975L21.3545 21.9993L22.337 21.0168L16.2351 14.915C17.5876 13.3366 18.4029 11.2831 18.4029 9.03293C18.4029 4.03008 14.3728 0 9.36995 0C4.3671 0 0.337021 4.03008 0.337021 9.03293ZM1.7267 9.03293C1.7267 4.7944 5.13142 1.38968 9.36995 1.38968C13.6085 1.38968 17.0132 4.7944 17.0132 9.03293C17.0132 13.2715 13.6085 16.6762 9.36995 16.6762C5.13142 16.6762 1.7267 13.2715 1.7267 9.03293Z" fill="#7B7AAF"/>
</svg>
