<svg width="74" height="74" viewBox="0 0 74 74" fill="none" xmlns="http://www.w3.org/2000/svg">
<g clip-path="url(#clip0_311_1486)">
<g filter="url(#filter0_d_311_1486)">
<path d="M22 26.9724C22 35.4044 37.318 63 37.318 63C37.318 63 52.6361 36.1709 52.6361 26.9724C52.6361 17.7738 45.3218 12 37.318 12C29.3143 12 22 18.5404 22 26.9724Z" fill="#7774FF"/>
<path d="M37.318 63L36.8809 63.2427C36.9685 63.4005 37.1345 63.4989 37.315 63.5C37.4956 63.5011 37.6627 63.4047 37.7523 63.2479L37.318 63ZM37.318 63C37.7552 62.7573 37.7552 62.7573 37.7551 62.7571C37.755 62.7569 37.7548 62.7566 37.7546 62.7562C37.7541 62.7554 37.7535 62.7542 37.7525 62.7525C37.7507 62.7493 37.748 62.7443 37.7444 62.7378C37.7371 62.7246 37.7262 62.7049 37.7118 62.6788C37.683 62.6267 37.6401 62.549 37.5842 62.4472C37.4724 62.2437 37.3082 61.9439 37.0992 61.5591C36.6812 60.7895 36.0837 59.6804 35.3667 58.3229C33.9325 55.6076 32.0208 51.9004 30.1095 47.9313C28.1976 43.9606 26.2896 39.735 24.8607 35.9811C23.4228 32.2032 22.5 28.9771 22.5 26.9724H21.5C21.5 29.1836 22.492 32.569 23.9262 36.3368C25.3694 40.1285 27.291 44.3828 29.2085 48.3651C31.1268 52.3488 33.0446 56.0676 34.4825 58.79C35.2015 60.1513 35.8008 61.2639 36.2205 62.0365C36.4303 62.4227 36.5953 62.724 36.7078 62.9288C36.7641 63.0312 36.8073 63.1096 36.8364 63.1623C36.851 63.1887 36.8621 63.2087 36.8695 63.2222C36.8733 63.2289 36.8761 63.234 36.878 63.2374C36.8789 63.2391 36.8796 63.2404 36.8801 63.2413C36.8804 63.2417 36.8806 63.2421 36.8807 63.2423C36.8808 63.2425 36.8809 63.2427 37.318 63ZM52.1361 26.9724C52.1361 29.172 51.2108 32.4974 49.7748 36.3059C48.3465 40.0942 46.4392 44.2947 44.5276 48.2166C42.6168 52.137 40.7055 55.7717 39.2716 58.4266C38.5547 59.7539 37.9574 60.8359 37.5395 61.5858C37.3305 61.9608 37.1664 62.2527 37.0547 62.4507C36.9988 62.5497 36.956 62.6252 36.9272 62.6759C36.9128 62.7012 36.9019 62.7204 36.8946 62.7331C36.891 62.7395 36.8883 62.7443 36.8865 62.7474C36.8856 62.749 36.8849 62.7502 36.8845 62.751C36.8842 62.7514 36.8841 62.7516 36.884 62.7518C36.8839 62.752 36.8838 62.7521 37.318 63C37.7523 63.2479 37.7523 63.2478 37.7525 63.2475C37.7526 63.2473 37.7528 63.247 37.753 63.2466C37.7535 63.2457 37.7542 63.2444 37.7552 63.2428C37.7571 63.2394 37.7599 63.2345 37.7636 63.2279C37.7711 63.2148 37.7822 63.1953 37.7968 63.1696C37.826 63.1182 37.8692 63.042 37.9255 62.9422C38.0381 62.7427 38.2031 62.4493 38.413 62.0726C38.8328 61.3194 39.4322 60.2335 40.1514 58.9018C41.5897 56.2389 43.5078 52.5913 45.4265 48.6547C47.3445 44.7195 49.2667 40.488 50.7105 36.6587C52.1467 32.8496 53.1361 29.372 53.1361 26.9724H52.1361ZM22.5 26.9724C22.5 18.8401 29.5663 12.5 37.318 12.5V11.5C29.0624 11.5 21.5 18.2406 21.5 26.9724H22.5ZM37.318 12.5C45.0875 12.5 52.1361 18.09 52.1361 26.9724H53.1361C53.1361 17.4576 45.556 11.5 37.318 11.5V12.5Z" fill="#7774FF"/>
</g>
<path d="M46.2955 24.9091L39.2358 44H36.2528L29.1932 24.9091H32.375L37.6449 40.1222H37.8438L43.1136 24.9091H46.2955Z" fill="white"/>
</g>
<defs>
<filter id="filter0_d_311_1486" x="8.5" y="-1.5" width="57.6361" height="78" filterUnits="userSpaceOnUse" color-interpolation-filters="sRGB">
<feFlood flood-opacity="0" result="BackgroundImageFix"/>
<feColorMatrix in="SourceAlpha" type="matrix" values="0 0 0 0 0 0 0 0 0 0 0 0 0 0 0 0 0 0 127 0" result="hardAlpha"/>
<feOffset/>
<feGaussianBlur stdDeviation="6.5"/>
<feComposite in2="hardAlpha" operator="out"/>
<feColorMatrix type="matrix" values="0 0 0 0 0.465083 0 0 0 0 0.454167 0 0 0 0 1 0 0 0 1 0"/>
<feBlend mode="normal" in2="BackgroundImageFix" result="effect1_dropShadow_311_1486"/>
<feBlend mode="normal" in="SourceGraphic" in2="effect1_dropShadow_311_1486" result="shape"/>
</filter>
<clipPath id="clip0_311_1486">
<rect width="74" height="74" fill="white"/>
</clipPath>
</defs>
</svg>
