<svg width="50" height="50" viewBox="0 0 50 50" fill="none" xmlns="http://www.w3.org/2000/svg">
<path fill-rule="evenodd" clip-rule="evenodd" d="M22.3633 0.0944223C18.0123 0.537533 13.6159 2.29376 9.8918 5.07639C8.66143 5.99583 6.00996 8.64815 5.09082 9.87891C1.71055 14.4059 0 19.4839 0 24.992C0 30.5001 1.71055 35.5781 5.09082 40.105C6.00996 41.3358 8.66143 43.9881 9.8918 44.9075C14.4173 48.2889 19.4937 50 25 50C30.5063 50 35.5827 48.2889 40.1082 44.9075C41.3386 43.9881 43.99 41.3358 44.9092 40.105C48.2895 35.5781 50 30.5001 50 24.992C50 19.4839 48.2895 14.4059 44.9092 9.87891C43.99 8.64815 41.3386 5.99583 40.1082 5.07639C36.3189 2.24511 31.9965 0.535775 27.4977 0.0897333C26.2713 -0.0318878 23.5794 -0.0294456 22.3633 0.0944223ZM25.9052 6.46961C27.4127 8.93564 28.3899 10.9564 29.1408 13.1609C29.3717 13.8385 29.5899 14.5138 29.6259 14.6615L29.6912 14.9301H25.0019C22.4228 14.9301 20.3125 14.9143 20.3125 14.8949C20.3125 14.8755 20.47 14.3809 20.6625 13.7959C21.0968 12.4761 21.8171 10.7463 22.5249 9.32326C23.0676 8.23239 24.9089 5.06672 25 5.06809C25.0269 5.06848 25.4342 5.69915 25.9052 6.46961ZM17.9818 6.99302C16.8797 9.19402 15.6638 12.294 15.223 14.0265L14.9933 14.9301H11.4021H7.81094L8.27451 14.2219C10.2245 11.2425 13.1299 8.62197 16.2109 7.06355C16.8313 6.74978 18.3525 6.05132 18.4335 6.04311C18.4475 6.04174 18.2441 6.46922 17.9818 6.99302ZM33.356 6.85782C37.3077 8.78295 40.0613 11.2859 42.1561 14.8569C42.1797 14.8971 40.5808 14.9301 38.6029 14.9301H35.0067L34.777 14.0265C34.3368 12.2961 33.1204 9.19412 32.021 6.99879L31.547 6.0521L31.8199 6.14734C31.97 6.19961 32.6612 6.51934 33.356 6.85782ZM14.1478 20.5716C13.9173 22.3801 13.9525 27.0054 14.2158 29.51L14.2646 29.974H10.02H5.77559L5.62139 29.4435C5.20596 28.014 5.13145 27.3373 5.13145 24.992C5.13145 22.6467 5.20596 21.9699 5.62139 20.5404L5.77559 20.0099H9.99746H14.2192L14.1478 20.5716ZM30.9991 20.2297C31.2378 21.3742 31.3935 23.1128 31.3948 24.6501C31.3964 26.2515 31.3663 26.5676 31.0584 28.1912L30.7203 29.974H24.9941H19.268L19.1031 28.7379C19.0125 28.058 18.8954 26.937 18.8429 26.2469C18.7397 24.8908 18.8182 23.3839 19.1031 21.246L19.268 20.0099H25.1106H30.9533L30.9991 20.2297ZM44.716 20.8892C45.3656 23.5389 45.3656 26.4451 44.716 29.0948L44.5005 29.974H40.265H36.0297L36.1057 29.3146C36.2082 28.425 36.2021 23.2396 36.0966 21.4508L36.0115 20.0099H40.256H44.5005L44.716 20.8892ZM15.223 35.9574C15.6632 37.6878 16.8796 40.7898 17.979 42.9852L18.453 43.9318L18.1801 43.8366C17.5994 43.6342 15.3411 42.4859 14.5508 41.9913C11.6281 40.1621 9.54971 38.035 7.84395 35.1271C7.82031 35.0867 9.41924 35.0538 11.3971 35.0538H14.9933L15.223 35.9574ZM29.6875 35.0891C29.6875 35.1084 29.53 35.603 29.3375 36.188C28.9032 37.5078 28.1829 39.2377 27.4751 40.6607C26.9324 41.7516 25.0911 44.9172 25 44.9158C24.9158 44.9146 23.2637 42.1617 22.7061 41.0936C21.7647 39.2906 20.6959 36.6453 20.3741 35.3224L20.3088 35.0538H24.9981C27.5772 35.0538 29.6875 35.0696 29.6875 35.0891ZM42.1561 35.1271C40.4503 38.035 38.3719 40.1621 35.4492 41.9913C34.6531 42.4895 32.3992 43.6346 31.8108 43.8398L31.529 43.9381L32.0134 43.0371C33.0239 41.1574 34.4956 37.3335 34.8697 35.6155L34.992 35.0538H38.5955C40.5774 35.0538 42.1797 35.0867 42.1561 35.1271Z" fill="#333333"/>
</svg>
