<svg width="20" height="20" viewBox="0 0 20 20" fill="none" xmlns="http://www.w3.org/2000/svg">
<path fill-rule="evenodd" clip-rule="evenodd" d="M8.94531 0.0377689C7.20492 0.215013 5.44637 0.917505 3.95672 2.03056C3.46457 2.39833 2.40398 3.45926 2.03633 3.95157C0.684219 5.76234 0 7.79354 0 9.99679C0 12.2 0.684219 14.2312 2.03633 16.042C2.40398 16.5343 3.46457 17.5952 3.95672 17.963C5.76691 19.3156 7.79746 20 10 20C12.2025 20 14.2331 19.3156 16.0433 17.963C16.5354 17.5952 17.596 16.5343 17.9637 16.042C19.3158 14.2312 20 12.2 20 9.99679C20 7.79354 19.3158 5.76234 17.9637 3.95157C17.596 3.45926 16.5354 2.39833 16.0433 2.03056C14.5276 0.898045 12.7986 0.21431 10.9991 0.0358933C10.5085 -0.0127551 9.43176 -0.0117782 8.94531 0.0377689ZM10.3621 2.58785C10.9651 3.57426 11.356 4.38256 11.6563 5.26437C11.7487 5.53539 11.836 5.80552 11.8504 5.8646L11.8765 5.97206H10.0007C8.9691 5.97206 8.125 5.96573 8.125 5.95795C8.125 5.95021 8.18801 5.75238 8.265 5.51836C8.43871 4.99045 8.72684 4.29851 9.00996 3.72931C9.22703 3.29295 9.96355 2.02669 10 2.02724C10.0107 2.02739 10.1737 2.27966 10.3621 2.58785ZM7.19273 2.79721C6.75187 3.67761 6.26551 4.91762 6.08922 5.61061L5.9973 5.97206H4.56082H3.12438L3.3098 5.68876C4.0898 4.49701 5.25195 3.44879 6.48438 2.82542C6.7325 2.69991 7.34102 2.42053 7.3734 2.41724C7.37898 2.4167 7.29766 2.58769 7.19273 2.79721ZM13.3424 2.74313C14.9231 3.51318 16.0245 4.51436 16.8624 5.94275C16.8719 5.95885 16.2323 5.97206 15.4412 5.97206H14.0027L13.9108 5.61061C13.7347 4.91844 13.2482 3.67765 12.8084 2.79952L12.6188 2.42084L12.728 2.45894C12.788 2.47984 13.0645 2.60773 13.3424 2.74313ZM5.6591 8.22864C5.56691 8.95204 5.58102 10.8022 5.68633 11.804L5.70582 11.9896H4.00801H2.31023L2.24855 11.7774C2.08238 11.2056 2.05258 10.9349 2.05258 9.99679C2.05258 9.05867 2.08238 8.78796 2.24855 8.21618L2.31023 8.00396H3.99898H5.6877L5.6591 8.22864ZM12.3996 8.09188C12.4951 8.54968 12.5574 9.2451 12.5579 9.86003C12.5586 10.5006 12.5465 10.627 12.4234 11.2765L12.2881 11.9896H9.99766H7.70719L7.64125 11.4952C7.605 11.2232 7.55816 10.7748 7.53715 10.4987C7.4959 9.95631 7.52727 9.35357 7.64125 8.49842L7.70719 8.00396H10.0443H12.3813L12.3996 8.09188ZM17.8864 8.35567C18.1462 9.41555 18.1462 10.578 17.8864 11.6379L17.8002 11.9896H16.106H14.4119L14.4423 11.7259C14.4833 11.37 14.4809 9.29582 14.4386 8.58032L14.4046 8.00396H16.1024H17.8002L17.8864 8.35567ZM6.08922 14.383C6.26527 15.0751 6.75184 16.3159 7.1916 17.1941L7.38121 17.5727L7.27203 17.5346C7.03977 17.4537 6.13645 16.9943 5.82031 16.7965C4.65125 16.0648 3.81988 15.214 3.13758 14.0508C3.12812 14.0347 3.7677 14.0215 4.55883 14.0215H5.9973L6.08922 14.383ZM11.875 14.0356C11.875 14.0434 11.812 14.2412 11.735 14.4752C11.5613 15.0031 11.2732 15.6951 10.99 16.2643C10.773 16.7006 10.0364 17.9669 10 17.9663C9.96633 17.9658 9.30547 16.8647 9.08242 16.4375C8.7059 15.7162 8.27836 14.6581 8.14965 14.129L8.12352 14.0215H9.99926C11.0309 14.0215 11.875 14.0278 11.875 14.0356ZM16.8624 14.0508C16.1801 15.214 15.3488 16.0648 14.1797 16.7965C13.8612 16.9958 12.9597 17.4538 12.7243 17.5359L12.6116 17.5752L12.8054 17.2148C13.2096 16.463 13.7982 14.9334 13.9479 14.2462L13.9968 14.0215H15.4382C16.231 14.0215 16.8719 14.0347 16.8624 14.0508Z" fill="#333333"/>
</svg>
