<svg width="68" height="20" viewBox="0 0 68 20" fill="none" xmlns="http://www.w3.org/2000/svg">
<path fill-rule="evenodd" clip-rule="evenodd" d="M4.75693 0.0658164C2.87498 0.373754 1.66268 1.35382 1.26119 2.892C1.17073 3.23833 1.171 3.29916 1.26345 3.43992C1.32072 3.52703 1.37449 3.59971 1.38306 3.60142C1.39164 3.60313 1.88832 3.65863 2.48679 3.7248C3.52989 3.84004 3.58146 3.83997 3.73063 3.72288C3.81623 3.65568 3.90593 3.49603 3.93001 3.36814C3.99276 3.03406 4.33328 2.60021 4.67264 2.42202C5.07721 2.20954 5.87416 2.20181 6.26811 2.40655C6.69841 2.63018 6.8661 2.99759 6.90491 3.80178L6.93681 4.46323L6.12052 4.54288C3.87445 4.7622 2.82916 5.10614 1.97639 5.90643C1.21462 6.62133 0.86491 7.46117 0.868683 8.56694C0.874032 10.1257 1.59897 11.2169 2.89747 11.6206C3.59477 11.8374 4.68574 11.8241 5.41081 11.59C6.00488 11.3982 6.31125 11.2173 6.93111 10.6926L7.37664 10.3155L7.50372 10.5324C7.68602 10.8436 8.43324 11.6086 8.62747 11.683C8.75751 11.7328 8.84413 11.7104 9.03898 11.5767C9.48423 11.271 10.7248 10.13 10.7493 10.0036C10.7624 9.93562 10.6324 9.67531 10.4605 9.42506C9.87893 8.57899 9.9089 8.77354 9.86247 5.54861C9.81851 2.49996 9.80376 2.3579 9.46043 1.68789C9.10935 1.00263 8.21473 0.399279 7.17356 0.145538C6.54224 -0.00829377 5.43351 -0.0449042 4.75693 0.0658164ZM31.9167 0.0381705C31.3702 0.115634 30.7325 0.283152 30.3319 0.454502C29.2113 0.933721 28.3103 2.06584 28.1976 3.1363C28.1642 3.45286 28.1693 3.4636 28.3949 3.55557C28.6747 3.66964 30.3531 3.84127 30.5953 3.78057C30.7304 3.74676 30.8005 3.64774 30.9191 3.32352C31.1029 2.82035 31.4181 2.48983 31.8559 2.34093C32.7293 2.04401 33.5999 2.37918 33.7972 3.08833C33.8386 3.23709 33.8726 3.60621 33.8728 3.90853L33.8732 4.45831L32.7616 4.58162C30.7026 4.81004 29.6675 5.18312 28.8605 5.98766C28.148 6.69804 27.8367 7.48793 27.8389 8.58001C27.8407 9.5609 28.0915 10.2741 28.6402 10.8594C29.3298 11.5951 30.3559 11.9048 31.587 11.7492C32.5709 11.6248 33.2016 11.3285 33.9872 10.6214L34.3411 10.3028L34.4986 10.5603C34.714 10.9123 35.381 11.6068 35.575 11.6809C35.7927 11.764 35.9057 11.6922 36.8796 10.852C37.4567 10.3541 37.7127 10.0886 37.7133 9.98742C37.7136 9.90716 37.5725 9.63528 37.3996 9.38332C36.8327 8.55729 36.8643 8.76991 36.8194 5.48018C36.7815 2.70286 36.7711 2.51563 36.6334 2.14535C36.2551 1.12745 35.4786 0.490291 34.2267 0.170721C33.6219 0.0162731 32.5176 -0.0470939 31.9167 0.0381705ZM16.7909 0.201925C16.1206 0.382308 15.5272 0.869397 15.1542 1.54542L14.9465 1.92179L14.9452 1.25459C14.9435 0.297865 14.9663 0.313672 13.5876 0.313672C12.7192 0.313672 12.4754 0.33468 12.3531 0.420218L12.2006 0.526696V5.95817C12.2006 11.8721 12.1792 11.5452 12.5733 11.6439C12.6598 11.6655 13.2005 11.6733 13.7749 11.6611C14.7767 11.6398 14.8246 11.6324 14.9503 11.4774C15.0752 11.3232 15.0812 11.1594 15.0812 7.87703C15.0812 5.85333 15.1096 4.28648 15.1504 4.06955C15.3212 3.15997 15.7743 2.74398 16.5395 2.79428C17.0284 2.82637 17.2521 2.97754 17.4816 3.43082L17.6531 3.76941L17.6874 7.58202C17.7193 11.1244 17.7304 11.4033 17.8442 11.5168C17.952 11.6244 18.1046 11.6389 19.1229 11.6389C20.15 11.6389 20.2948 11.6248 20.4188 11.5129C20.5553 11.3896 20.559 11.3049 20.584 7.71498C20.6127 3.58547 20.6087 3.61948 21.1177 3.16066C21.8148 2.53226 22.8928 2.74166 23.1103 3.5477C23.16 3.73178 23.1895 5.1136 23.197 7.61056C23.2076 11.143 23.2166 11.4026 23.3309 11.5167C23.4391 11.6247 23.5924 11.6389 24.6487 11.6389C25.7046 11.6389 25.8583 11.6247 25.9664 11.5168C26.0808 11.4027 26.0902 11.1262 26.1084 7.34252C26.1288 3.1224 26.098 2.46499 25.8494 1.8019C25.475 0.803635 24.3632 0.10838 23.1409 0.10838C21.9788 0.10838 20.9704 0.701057 20.4676 1.67968L20.3107 1.98502L20.1378 1.64547C19.9243 1.22619 19.4625 0.695651 19.1268 0.484201C18.5653 0.130552 17.524 0.00470786 16.7909 0.201925ZM51.7394 0.174416C50.5892 0.421108 49.5343 1.19451 48.9001 2.25621C48.378 3.13021 48.0024 4.67947 48.0024 5.95919C48.0024 7.22748 48.3455 8.6687 48.8741 9.62023C49.2469 10.2915 50.1053 11.1155 50.7449 11.4163C51.4582 11.7517 51.8965 11.8442 52.7339 11.8357C53.3093 11.83 53.5643 11.7928 54.0027 11.6506C55.5493 11.149 56.6543 9.85611 57.1708 7.94368C57.3409 7.31384 57.3554 7.15857 57.3526 5.99341C57.3499 4.85753 57.3316 4.6597 57.1739 4.06839C56.7427 2.45137 56.0805 1.42505 55.0399 0.760934C54.3582 0.325784 53.7832 0.163125 52.8368 0.137669C52.3841 0.125557 51.8903 0.142048 51.7394 0.174416ZM63.5359 0.20432C62.7831 0.442458 62.2823 0.884315 61.8554 1.68687L61.5849 2.19551L61.583 1.36784C61.5806 0.26187 61.647 0.313672 60.2319 0.313672C59.2549 0.313672 59.1209 0.327495 59.02 0.438832C58.9163 0.553042 58.9065 1.03828 58.9065 6.0075C58.9065 10.9876 58.9161 11.4591 59.0199 11.545C59.1064 11.6166 59.4151 11.6389 60.3205 11.6389C61.3685 11.6389 61.5221 11.6246 61.6302 11.5168C61.7438 11.4036 61.7552 11.1339 61.787 7.8216C61.8201 4.36661 61.8262 4.2355 61.9699 3.85639C62.2623 3.08525 62.6425 2.77717 63.3022 2.77717C64.0049 2.77717 64.3456 3.2013 64.4633 4.2229C64.4996 4.53803 64.5295 6.29327 64.5298 8.12351C64.5303 11.1349 64.5411 11.4601 64.6438 11.545C64.7304 11.6167 65.0403 11.6389 65.9529 11.6389C67.1403 11.6389 67.1497 11.6378 67.2852 11.4707C67.4189 11.3059 67.4211 11.2168 67.3921 7.12539C67.3665 3.5128 67.3468 2.88098 67.2463 2.45028C67.0794 1.73497 66.9107 1.38591 66.541 0.991613C65.9482 0.359315 65.3215 0.107149 64.3589 0.113787C64.0571 0.115839 63.6868 0.156624 63.5359 0.20432ZM39.3991 0.421176C39.2361 0.583904 39.2408 2.37631 39.4046 2.51221C39.4918 2.58447 39.9341 2.61397 41.3257 2.64031L43.1336 2.67453L41.0991 5.58282C39.8229 7.40705 39.0302 8.60355 38.9722 8.79283C38.9132 8.98594 38.8799 9.44888 38.8799 10.079C38.8799 11.0355 38.8847 11.0683 39.0498 11.233C39.2373 11.4202 39.1771 11.4308 39.9772 11.069C40.5214 10.823 41.458 10.587 42.2128 10.506C43.4701 10.3709 44.8586 10.5842 46.0524 11.0958C47.021 11.5109 47.1249 11.4078 47.0953 10.0619C47.0721 9.00298 47.0238 8.89562 46.4399 8.60212C45.597 8.1784 44.4173 7.90946 43.4015 7.90946C43.1401 7.90946 42.9264 7.89359 42.9264 7.87415C42.9264 7.85479 43.7644 6.6461 44.7885 5.18825C45.8128 3.73041 46.7106 2.40388 46.7836 2.2404C46.8934 1.9946 46.9123 1.82168 46.8931 1.24138C46.8778 0.776947 46.8381 0.501377 46.7758 0.426651C46.6905 0.324279 46.3449 0.313672 43.0943 0.313672C39.9245 0.313672 39.4944 0.326195 39.3991 0.421176ZM53.449 2.50037C53.7525 2.68753 54.0019 3.1883 54.1498 3.90751C54.2934 4.60543 54.3176 7.23946 54.1866 7.90946C53.9755 8.99039 53.4937 9.55604 52.7449 9.60202C52.2021 9.63542 51.8924 9.44662 51.5957 8.90171C51.2967 8.35262 51.1606 7.63492 51.1111 6.34528C51.0011 3.4855 51.5365 2.22377 52.8179 2.32293C53.0545 2.3412 53.3053 2.41175 53.449 2.50037ZM6.90238 7.07119C6.86047 8.06063 6.73023 8.51042 6.33669 9.02461C6.00159 9.46256 5.59598 9.64356 5.03065 9.60764C4.63841 9.58273 4.56139 9.55317 4.34549 9.34432C4.0274 9.03665 3.86917 8.51487 3.92692 7.9638C4.04365 6.84906 4.93778 6.22121 6.4323 6.20438L6.93934 6.1987L6.90238 7.07119ZM33.8603 7.1065C33.8331 7.90481 33.8075 8.06199 33.6478 8.4101C33.3919 8.96767 33.2128 9.19664 32.8548 9.42308C32.5985 9.58533 32.4685 9.62023 32.1211 9.62023C31.3249 9.62023 30.9133 9.13389 30.9133 8.19345C30.9133 7.88339 30.9546 7.55883 31.0112 7.42409C31.3338 6.65582 32.1861 6.21793 33.3849 6.20438L33.8911 6.1987L33.8603 7.1065ZM41.8004 12.1551C40.2297 12.4005 38.5693 13.2383 38.9336 13.6017C38.9911 13.6591 39.2544 13.6542 39.9571 13.5828C40.4774 13.5299 41.3969 13.4869 42.0005 13.4874C42.9772 13.4881 43.1331 13.5043 43.4187 13.6353C43.6849 13.7574 43.7518 13.8264 43.811 14.0406C43.9512 14.5472 43.7 15.6242 43.0306 17.3865C42.824 17.9305 42.673 18.4227 42.6951 18.4801C42.8128 18.7863 43.373 18.4136 43.9665 17.6341C44.4037 17.0601 44.9977 15.8497 45.2162 15.0876C45.4291 14.3455 45.5638 13.2364 45.4849 12.8767C45.4125 12.5472 45.2177 12.3965 44.6753 12.2504C44.1865 12.1186 42.4107 12.0598 41.8004 12.1551ZM10.2789 12.9075C10.1529 13.1425 10.2623 13.293 11.0111 13.9143C14.8926 17.1349 19.2062 19.0539 24.1304 19.7506C28.6487 20.3899 33.4756 19.7907 37.7404 18.0613C39.2669 17.4422 41.5928 16.1495 42.1891 15.5886C42.5403 15.2582 42.3555 14.6841 41.898 14.6841C41.7992 14.6841 41.4425 14.7959 41.105 14.9326C36.5777 16.7662 31.2706 17.6811 26.6376 17.4269C21.2046 17.1286 16.1867 15.7576 11.7066 13.3474C11.1142 13.0288 10.5674 12.768 10.4916 12.768C10.4157 12.768 10.3201 12.8308 10.2789 12.9075Z" fill="#7B7AAF"/>
</svg>
