<svg width="108" height="20" viewBox="0 0 108 20" fill="none" xmlns="http://www.w3.org/2000/svg">
<path fill-rule="evenodd" clip-rule="evenodd" d="M17.4173 2.03625C15.9474 5.85638 12.3429 15.492 12.3429 15.601C12.3429 15.6611 13.1339 15.6868 14.1004 15.6583L15.858 15.6068L16.4188 13.9844L16.9796 12.3621L19.8726 12.3127L22.7655 12.2631L23.3375 13.9801L23.9094 15.6969H25.6971C26.7929 15.6969 27.4849 15.6257 27.4849 15.5129C27.4849 15.3288 25.033 8.67569 22.9025 3.07853L21.7703 0.104192L19.9849 0.0533587L18.1998 0.0023435L17.4173 2.03625ZM66.602 7.85549V15.711L68.1793 15.6589L69.7566 15.6068V7.85549V0.104192L68.1793 0.0520962L66.602 0V7.85549ZM72.1901 7.85549V15.6969H77.6881H83.1862V14.2584V12.8201L79.4457 12.7713L75.7053 12.7226L75.6578 6.36833L75.6104 0.014061H73.9003H72.1901V7.85549ZM84.448 1.36603V2.718H86.0704H87.6927V1.36603V0.014061H86.0704H84.448V1.36603ZM3.22247 0.754401C2.72152 1.30853 2.82914 2.46672 3.5884 4.69116C3.9419 5.72695 4.23104 6.64106 4.23104 6.72272C4.23104 6.8042 4.02878 6.82024 3.78164 6.75805C3.42382 6.66828 3.19849 6.77896 2.67771 7.29974C2.08465 7.89281 2.03382 8.02025 2.13585 8.65874C2.23156 9.2574 2.19497 9.38034 1.89249 9.47624C0.814338 9.81855 0.461203 11.6261 1.18171 13.1143C1.66374 14.1103 2.9391 15.2308 4.00283 15.5933C4.46106 15.7494 5.33443 15.8772 5.94354 15.8772C7.59601 15.8772 8.64081 15.4456 9.83379 14.2703C11.1306 12.9926 11.6218 11.771 11.6218 9.8227C11.6218 8.25045 11.3343 7.54508 10.5226 7.12525C10.2188 6.96824 10.0072 6.74345 10.0523 6.62574C10.3609 5.82141 11.249 2.87555 11.3392 2.35748C11.4787 1.55477 11.1452 0.90492 10.4808 0.684459C10.0418 0.538806 9.89508 0.587297 9.43198 1.03074C8.87046 1.56847 8.03639 3.16199 7.48082 4.75876L7.15598 5.69234L6.94994 5.15155C5.52172 1.40154 4.90414 0.374587 4.07764 0.374587C3.78597 0.374587 3.41805 0.538085 3.22247 0.754401ZM102.234 1.03561C102.168 1.10159 102.114 1.87221 102.114 2.74811V4.34037H101.212H100.311V5.42195V6.50352H101.212H102.114L102.114 10.1538C102.114 13.2704 102.16 13.8956 102.43 14.429C102.924 15.4083 103.722 15.7618 105.628 15.8453C107.615 15.9322 107.745 15.835 107.666 14.3179L107.612 13.269L106.858 13.3241C106.288 13.3659 106.015 13.2888 105.732 13.0058C105.384 12.6575 105.358 12.4271 105.358 9.57664V6.52065L106.485 6.46711L107.612 6.41339V5.42195V4.4305L106.485 4.37678L105.358 4.32324V2.61922V0.915375H103.856C103.03 0.915375 102.3 0.969454 102.234 1.03561ZM4.3392 1.23354C4.44826 1.30637 4.62275 1.52827 4.72676 1.72656C5.01212 2.27005 6.21393 5.78067 6.21393 6.07035C6.21393 6.23745 6.00735 6.32326 5.60482 6.32326H4.99589L4.34298 4.35803C3.71945 2.48078 3.54929 1.47689 3.81049 1.21587C3.96299 1.06319 4.09043 1.06752 4.3392 1.23354ZM10.4799 1.73918C10.5925 2.03264 10.069 4.0195 9.4273 5.7347C9.07146 6.68613 9.03883 6.71695 8.50561 6.61042C8.20151 6.54949 7.9239 6.47089 7.88875 6.43574C7.7824 6.32957 9.21801 2.43715 9.55078 1.92917C9.8985 1.39848 10.3164 1.31303 10.4799 1.73918ZM33.964 4.15073C33.2505 4.36723 32.6686 4.70198 32.1267 5.20725L31.631 5.66963V4.99797V4.32631L30.0537 4.3784L28.4764 4.4305V10.0186V15.6068H30.0988H31.7211L31.8113 11.6709L31.9014 7.73508L32.4901 7.20943C33.2797 6.50442 34.5985 6.46278 35.3614 7.11858L35.8672 7.55319L35.9218 11.6251L35.9764 15.6969H37.6054H39.2343L39.1672 11.2354C39.0926 6.26774 39.0256 5.9375 37.8912 4.94136C36.9857 4.14641 35.1777 3.78245 33.964 4.15073ZM44.2438 4.25673C43.1159 4.60445 42.023 5.59842 41.4212 6.82367C40.9582 7.7668 40.9149 8.02602 40.9179 9.83838C40.9217 12.096 41.2105 12.9908 42.2804 14.0607C43.9442 15.7245 47.0135 15.8411 48.6208 14.3017L49.1165 13.8269L49.1154 14.6267C49.1132 16.4676 48.3915 17.5772 47.0674 17.7757C46.0344 17.9307 44.8841 17.463 44.5737 16.7621C44.3429 16.2408 44.3327 16.2377 42.7633 16.2377C41.2458 16.2377 41.1851 16.2534 41.1878 16.6433C41.193 17.3424 41.9694 18.4677 42.8581 19.0644C44.4396 20.1262 47.3274 20.3126 49.2675 19.4778C50.4054 18.9883 51.5405 17.7898 51.8514 16.7498C52.0216 16.1804 52.086 14.3969 52.0881 10.1989L52.0908 4.4305L50.6037 4.37822L49.1165 4.32577V4.97796V5.63033L48.3848 5.0041C47.2455 4.02887 45.8184 3.77128 44.2438 4.25673ZM57.9405 4.21419C56.4701 4.63077 54.9619 5.84971 54.2848 7.16869C53.1993 9.283 53.5976 12.4843 55.1627 14.2249C56.3075 15.4983 57.4275 15.9479 59.4816 15.9587C61.2237 15.968 62.4188 15.5897 63.3271 14.7417C63.7942 14.3055 64.5131 13.1327 64.7027 12.4973C64.8206 12.1019 64.7894 12.0917 63.4697 12.0917C62.2899 12.0917 62.081 12.1414 61.8452 12.4782C61.3484 13.1873 60.6185 13.5312 59.6078 13.5325C58.3407 13.5341 57.6422 13.1491 57.218 12.215C56.5549 10.7541 56.3512 10.8298 60.9475 10.8298H65.027L64.9425 9.51301C64.7961 7.23016 63.674 5.41564 61.8683 4.54154C60.861 4.05393 59.0414 3.90233 57.9405 4.21419ZM92.8021 4.1675C90.686 4.58625 89.4918 5.84214 89.4981 7.64188C89.5037 9.25523 90.4345 10.0763 93.0105 10.7406C95.7656 11.451 96.3284 11.6909 96.4587 12.2101C96.7297 13.2895 95.6247 14.0434 94.1056 13.8157C93.2843 13.6924 92.4672 13.0159 92.35 12.3621C92.2929 12.043 92.1218 11.9954 90.8625 11.9484C90.0798 11.9192 89.3744 11.9603 89.2951 12.0396C89.0319 12.3028 89.5251 13.6839 90.1378 14.3998C91.0891 15.5109 92.2853 15.9415 94.4526 15.9529C95.444 15.9581 96.601 15.8586 97.0237 15.7319C99.0076 15.137 100.256 12.8567 99.578 11.0669C99.1162 9.84758 98.1766 9.30967 95.3815 8.66379C93.4712 8.22233 92.7401 7.79727 92.7401 7.12777C92.7401 6.56517 93.2218 6.32326 94.3421 6.32326C95.5024 6.32326 96.1016 6.60285 96.327 7.24945C96.5049 7.75959 96.5233 7.76536 97.9583 7.76536C99.3305 7.76536 99.4098 7.74391 99.4098 7.37167C99.4098 6.65008 98.666 5.41203 97.9466 4.93596C96.7145 4.12063 94.6204 3.80787 92.8021 4.1675ZM20.9236 6.95454L21.8431 9.56799H19.8997H17.9563L18.5073 8.08082C18.8103 7.26297 19.2267 6.08675 19.4328 5.46701C19.6386 4.84745 19.8515 4.34055 19.9056 4.34073C19.9597 4.34091 20.4177 5.51712 20.9236 6.95454ZM84.448 10.0186V15.6969H86.0704H87.6927V10.0186V4.34037H86.0704H84.448V10.0186ZM47.576 6.75877C48.3671 7.08938 48.7246 7.65612 48.9645 8.96123C49.2149 10.3224 48.9405 11.4023 48.1411 12.2018C47.0391 13.3038 45.4948 13.1561 44.5374 11.8571C43.9675 11.0838 43.9027 8.9441 44.417 7.88145C45.0209 6.63403 46.24 6.20068 47.576 6.75877ZM61.0265 7.15463C61.3124 7.44089 61.599 7.93896 61.6631 8.26108L61.7799 8.84694H59.3239C56.6266 8.84694 56.6239 8.8455 57.1971 7.77654C57.9248 6.41952 59.962 6.08874 61.0265 7.15463ZM7.45053 7.23214C9.16303 7.44684 10.2918 7.84215 10.5455 8.31606C10.6417 8.49579 10.7205 9.17466 10.7205 9.82469C10.7205 12.8877 8.7715 15.0209 5.97256 15.0209C3.95776 15.0209 2.49367 14.0299 1.79118 12.1905C1.49123 11.4049 1.4896 11.3093 1.76613 10.7294C1.95306 10.3374 2.19064 10.1088 2.41147 10.1088C2.76947 10.1088 3.78255 11.1635 4.23284 12.005C4.45024 12.4111 4.4488 12.4983 4.22275 12.6415C3.80057 12.9084 3.6706 12.8515 2.9692 12.0917C2.19317 11.2509 2.06789 11.2125 2.06789 11.8153C2.06789 12.3592 3.09755 13.4364 3.78146 13.608C4.37777 13.7577 5.07503 13.3474 5.32037 12.7024C5.50964 12.2042 5.85341 12.2768 5.85341 12.8149C5.85341 13.3133 6.22096 14.0387 6.53462 14.1591C6.94778 14.3176 6.99952 14.156 6.79438 13.3477C6.44845 11.9848 7.12354 10.7428 8.61828 9.99197C9.7743 9.41134 9.73573 9.45118 9.46227 9.12166C9.30003 8.92626 8.88975 8.84694 8.03963 8.84658C6.60023 8.8464 5.6133 8.43035 5.52226 7.78573C5.47269 7.43602 5.56949 7.2682 5.94822 7.04701C5.95093 7.04557 6.62691 7.12885 7.45053 7.23214ZM4.77219 8.60611C5.06548 9.06866 5.4415 9.80323 5.60789 10.2387C5.879 10.9488 5.88171 11.0589 5.63493 11.3059C5.38797 11.5527 5.28882 11.5192 4.67358 10.9802C3.91161 10.3127 2.9692 8.93419 2.9692 8.48713C2.9692 8.07451 3.33369 7.76536 3.8204 7.76536C4.12234 7.76536 4.38769 7.9997 4.77219 8.60611ZM7.19041 9.7241C7.24359 9.81008 7.13471 10.0181 6.94868 10.1865C6.60817 10.4945 6.54363 10.4626 6.33759 9.88345C6.25052 9.63919 6.32335 9.56799 6.65954 9.56799C6.89857 9.56799 7.13742 9.63829 7.19041 9.7241Z" fill="#7B7AAF"/>
</svg>
