<svg width="71" height="20" viewBox="0 0 71 20" fill="none" xmlns="http://www.w3.org/2000/svg">
<path fill-rule="evenodd" clip-rule="evenodd" d="M9.50635 0.0496785C7.31486 0.351387 5.32376 1.31351 3.73304 2.83953C1.7016 4.78822 0.65572 7.09262 0.546701 9.86027C0.45251 12.2502 1.08848 14.3587 2.49215 16.3106C3.0631 17.1046 4.26521 18.2693 5.05701 18.7956C5.88087 19.3434 7.18869 19.9461 7.64937 19.9903C8.2315 20.0462 8.30514 19.8939 8.30514 18.6342V17.6282L7.33176 17.6378C6.4784 17.6462 6.30725 17.6238 5.94416 17.4565C5.35913 17.187 5.11525 16.9223 4.68472 16.09C4.33297 15.4099 4.19314 15.2472 3.50721 14.7204C3.02656 14.3512 3.63644 14.1432 4.28733 14.4543C4.7249 14.6634 4.90251 14.8237 5.30106 15.3692C5.7238 15.948 5.95269 16.1577 6.33616 16.3179C6.69462 16.4677 7.46091 16.4757 7.92921 16.3345C8.21302 16.2489 8.27085 16.1894 8.35609 15.8948C8.47928 15.4694 8.60967 15.2143 8.82497 14.9779C9.02015 14.7636 9.07027 14.7876 8.0152 14.5901C5.56889 14.1323 4.3348 12.5443 4.33016 9.84826C4.32842 8.81547 4.51415 8.14934 4.99537 7.46242C5.33378 6.97921 5.33387 6.97912 5.23446 6.56492C5.12279 6.09951 5.17382 5.06805 5.33262 4.57912C5.41654 4.32074 5.47155 4.26847 5.65935 4.26847C6.04995 4.26847 6.91324 4.58119 7.58914 4.9674L8.24003 5.33936L8.83177 5.20342C9.6572 5.01371 11.9269 5.0133 12.7667 5.20275L13.3762 5.34019L13.9206 5.01189C14.5748 4.61731 15.2497 4.35495 15.7691 4.29349C16.1431 4.24917 16.1541 4.25447 16.2543 4.52751C16.4012 4.92764 16.4616 6.23281 16.3516 6.62945C16.2661 6.93795 16.2771 6.98501 16.5109 7.31074C17.1549 8.20758 17.3758 9.17136 17.2477 10.5247C17.1687 11.36 16.9444 12.1341 16.6221 12.6842C16.3312 13.1804 15.6196 13.8215 15.0284 14.12C14.514 14.3797 13.3458 14.7048 12.9236 14.7059C12.7983 14.7063 12.6957 14.7257 12.6957 14.7492C12.6957 14.7726 12.8169 15.0056 12.965 15.2669L13.2342 15.742L13.2756 17.7384C13.3072 19.2604 13.3441 19.7674 13.4307 19.8716C13.742 20.246 15.0967 19.7644 16.6306 18.7341C17.3147 18.2745 18.5085 17.1119 19.0721 16.3563C21.0276 13.7344 21.5982 10.1545 20.5564 7.04399C19.3721 3.50815 16.3989 0.887787 12.7488 0.162841C11.9755 0.00925228 10.2398 -0.0513053 9.50635 0.0496785ZM28.6975 3.69487C26.2673 4.01017 24.8408 5.61547 24.4568 8.46762C24.3094 9.56179 24.3912 11.6569 24.614 12.4943C25.0106 13.9855 25.8587 15.1196 26.9804 15.6593C27.9224 16.1123 28.5442 16.2303 29.9682 16.2264C31.0704 16.2233 31.2933 16.198 31.9404 16.0021C32.8008 15.7419 33.4477 15.4305 33.52 15.2421C33.5485 15.1678 33.5718 13.7756 33.5718 12.1482C33.5718 9.95728 33.5461 9.16349 33.4724 9.08984C33.3312 8.9486 29.4219 8.9486 29.2806 9.08984C29.2146 9.15587 29.1812 9.51565 29.1812 10.1609C29.1812 11.3937 29.1806 11.3928 30.1812 11.3928H30.9209V12.5428V13.6928L30.2374 13.7478C28.3279 13.9014 27.4308 13.1537 27.1136 11.1443C26.9345 10.0093 27.0726 8.43838 27.4207 7.6513C27.6483 7.13686 28.0582 6.69813 28.5524 6.44008C28.9372 6.2391 29.072 6.21748 30.0925 6.19221C31.0032 6.16976 31.3261 6.19495 31.8321 6.32774C32.304 6.45159 32.4762 6.46766 32.5482 6.39443C32.676 6.2647 33.085 4.47449 33.0237 4.31444C32.9469 4.1143 31.7547 3.78318 30.7774 3.69048C29.7787 3.59579 29.4562 3.59646 28.6975 3.69487ZM44.8894 4.23169C44.8613 4.30492 44.8383 6.94814 44.8383 10.1054C44.8383 14.898 44.8572 15.8617 44.9531 15.9413C45.031 16.006 45.451 16.0292 46.2578 16.0136L47.4478 15.9905L47.4696 13.4432L47.4916 10.8958H49.1472H50.8029V13.3709C50.8029 15.3798 50.8245 15.864 50.9177 15.9413C50.9955 16.006 51.4156 16.0292 52.2224 16.0136L53.4124 15.9905V10.0674V4.14421L52.2224 4.12118C51.4156 4.10552 50.9955 4.1288 50.9177 4.19341C50.8253 4.27012 50.8029 4.69999 50.8029 6.39103V8.49339H49.1474H47.4919L47.4699 6.3188L47.4478 4.14421L46.1941 4.12142C45.1054 4.10154 44.9337 4.11612 44.8894 4.23169ZM63.1023 4.20418C63.0801 4.26234 63.0716 6.93804 63.0834 10.1502L63.1048 15.9905L63.9626 16.0142C64.8829 16.0397 65.0516 15.9843 65.0516 15.6566C65.0516 15.4689 65.0565 15.4698 65.6108 15.7531C66.4273 16.1706 67.3722 16.3382 68.2158 16.2153C69.5829 16.016 70.2839 15.3283 70.6608 13.8167C70.7639 13.4032 70.8016 12.8778 70.8048 11.807C70.8097 10.1679 70.6822 9.55566 70.177 8.79302C69.3766 7.58461 67.6585 7.28315 65.8608 8.03569C65.7274 8.09152 65.7158 7.95674 65.6951 6.11998L65.6729 4.14421L64.4078 4.12134C63.4413 4.10386 63.1332 4.12341 63.1023 4.20418ZM35.56 4.44417C35.0456 4.64863 34.6347 5.24674 34.6354 5.78952C34.6365 6.49483 35.0091 7.0135 35.6521 7.20437C36.2466 7.38099 36.7656 7.22566 37.1643 6.75181C37.7784 6.02197 37.5493 4.93857 36.693 4.52412C36.312 4.33963 35.8966 4.3103 35.56 4.44417ZM39.5596 5.57786C39.4898 5.62218 39.4512 5.99994 39.4353 6.79447L39.4121 7.94688L38.7674 8.10585L38.1227 8.26474L38.1461 9.14535L38.1695 10.026L38.8115 10.0501L39.4536 10.0743V12.0855C39.4536 14.3371 39.5113 14.692 39.977 15.3025C40.5239 16.0196 41.7268 16.3726 42.9854 16.1854C43.8684 16.0541 43.927 15.9811 43.927 15.013C43.927 14.5243 43.8906 14.2062 43.8276 14.1432C43.7683 14.0839 43.4819 14.0438 43.1171 14.0438C42.5521 14.0438 42.4877 14.0255 42.2638 13.8016L42.0217 13.5595V11.8162V10.073L42.9122 10.0495L43.8027 10.026L43.8261 8.99698C43.8436 8.22945 43.8225 7.95086 43.7433 7.90057C43.6849 7.86354 43.2736 7.83264 42.8294 7.8319L42.0217 7.83065V6.72116C42.0217 5.78588 42.0011 5.60379 41.8906 5.56137C41.6993 5.48798 39.6786 5.50223 39.5596 5.57786ZM34.831 7.93006C34.6879 8.07321 34.6879 15.7894 34.831 15.9326C34.8986 16.0002 35.2913 16.032 36.0571 16.032C36.8228 16.032 37.2155 16.0002 37.2831 15.9326C37.4263 15.7894 37.4263 8.07321 37.2831 7.93006C37.2155 7.86246 36.8228 7.83065 36.0571 7.83065C35.2913 7.83065 34.8986 7.86246 34.831 7.93006ZM54.578 7.9608C54.465 8.07388 54.448 8.44699 54.4485 10.7981C54.4493 14.2719 54.5449 14.8736 55.1998 15.5285C55.7796 16.1083 56.9454 16.3849 58.0998 16.2166C58.6541 16.1359 58.9835 16.0258 60.0604 15.5618C60.1281 15.5327 60.164 15.5915 60.164 15.7316C60.164 16.0047 60.3238 16.0468 61.2409 16.015L61.945 15.9905L61.9666 11.9781C61.9835 8.8231 61.9658 7.95152 61.8837 7.89941C61.7624 7.82237 59.7436 7.80638 59.5494 7.88094C59.4334 7.92542 59.4184 8.26284 59.4184 10.8265V13.7217L59.0249 13.8968C58.7706 14.01 58.449 14.0743 58.1159 14.0786C57.5109 14.0864 57.2988 13.9362 57.1778 13.4143C57.1365 13.2365 57.1019 11.9302 57.1008 10.5112C57.0991 8.23616 57.0833 7.92526 56.9678 7.88094C56.8957 7.85327 56.3578 7.83065 55.7725 7.83065C54.9154 7.83065 54.6829 7.856 54.578 7.9608ZM67.6516 9.99182C68.1409 10.3768 68.3297 11.2621 68.2046 12.5849C68.1257 13.4183 67.9766 13.8137 67.681 13.9734C67.4103 14.1195 66.568 14.0953 66.0648 13.9269L65.6283 13.7809L65.6506 11.9471L65.6729 10.1134L66.0457 9.97062C66.5892 9.76244 67.3732 9.77279 67.6516 9.99182ZM4.18204 14.6392C4.23323 14.7928 4.41159 14.8183 4.41159 14.672C4.41159 14.5998 4.35252 14.5408 4.28045 14.5408C4.2083 14.5408 4.16398 14.5851 4.18204 14.6392ZM4.57727 15.0732C4.57727 15.15 4.6481 15.2036 4.74983 15.2036C4.95172 15.2036 4.92322 15.01 4.71537 14.9697C4.63361 14.9538 4.57727 14.996 4.57727 15.0732ZM4.9996 15.4837C4.92446 15.5742 4.93275 15.63 5.03671 15.734C5.18011 15.8774 5.32285 15.8428 5.32285 15.6644C5.32285 15.471 5.10928 15.3515 4.9996 15.4837ZM5.48663 16.0338C5.3921 16.0927 5.38514 16.1436 5.45597 16.2575C5.57411 16.4471 5.78585 16.4887 5.84533 16.3338C5.91111 16.1623 5.64187 15.937 5.48663 16.0338ZM6.12939 16.4957C6.02949 16.5955 6.17421 16.7775 6.3534 16.7775C6.59438 16.7775 6.66927 16.6955 6.55462 16.5573C6.45968 16.443 6.2172 16.4078 6.12939 16.4957ZM7.81671 16.5219C7.6782 16.6096 7.75441 16.8604 7.9196 16.8604C8.07459 16.8604 8.25047 16.6417 8.18312 16.5327C8.11825 16.4276 7.97237 16.4234 7.81671 16.5219ZM7.0351 16.6256C6.91871 16.6907 6.90819 16.7328 6.98523 16.8257C7.10982 16.9758 7.26399 16.9754 7.38908 16.8248C7.52469 16.6613 7.24867 16.506 7.0351 16.6256Z" fill="#7B7AAF"/>
</svg>
