<svg width="76" height="20" viewBox="0 0 76 20" fill="none" xmlns="http://www.w3.org/2000/svg">
<path fill-rule="evenodd" clip-rule="evenodd" d="M7.55178 0.204203C5.74576 0.753621 3.57434 2.53386 2.31321 4.49907C1.54088 5.70268 0.813649 7.60726 0.529632 9.17008C0.31459 10.3527 0.686677 10.0481 1.11318 8.69274C1.70246 6.81942 2.8538 4.87975 4.09775 3.66515C5.82214 1.98158 7.24174 1.32691 9.41531 1.21282C10.9929 1.12976 11.3051 1.19373 12.7135 1.88706C13.5691 2.30832 14.32 2.60236 14.3818 2.54054C14.6228 2.29925 13.1314 0.84527 12.2171 0.429985C11.2118 -0.0268295 8.70932 -0.147835 7.55178 0.204203ZM34.5229 3.32266C34.1033 3.74224 34.0456 4.11815 34.0456 6.42537C34.0456 7.86932 33.9549 9.05074 33.8439 9.05074C33.7329 9.05074 33.4455 8.83355 33.2052 8.56791C32.5744 7.87076 30.4335 7.30392 29.2037 7.50822C26.3346 7.98484 24.7374 10.1579 24.7374 13.5855C24.7374 15.712 25.3028 17.266 26.5184 18.4818C28.2898 20.2532 30.6553 20.4339 32.8384 18.9648L33.9985 18.1839L34.1286 18.8338C34.2157 19.2689 34.499 19.5832 34.9859 19.7849C35.9485 20.1837 36.8261 19.6494 37.0308 18.5398C37.1096 18.1121 37.1416 14.611 37.1015 10.7596L37.0289 3.75728L36.4654 3.30118C35.7425 2.7162 35.1224 2.72312 34.5229 3.32266ZM72.9488 3.32266C72.5265 3.74487 72.4714 4.11815 72.4714 6.55592V9.31185L71.5764 8.603C69.1234 6.66046 65.5042 7.30034 63.9454 9.9522C63.3344 10.9911 63.2826 11.2756 63.2826 13.5855C63.2826 16.4727 63.6767 17.5238 65.2447 18.819C67.0269 20.2909 69.2102 20.347 71.2518 18.9732L72.4244 18.1839L72.5619 18.8708C72.8471 20.2966 74.813 20.3293 75.35 18.9174C75.502 18.5171 75.5674 15.5519 75.5242 11.0169L75.4548 3.75728L74.8913 3.30142C74.1684 2.7162 73.5483 2.72312 72.9488 3.32266ZM6.93267 4.61148C5.80376 5.74039 5.80376 6.87168 6.93267 8.00059C7.84606 8.91398 8.78021 9.05384 9.94468 8.45168C10.8337 7.99176 11.1333 7.42062 11.1333 6.18408C11.1333 4.78857 10.1411 3.8 8.74107 3.8C7.92553 3.8 7.59641 3.94774 6.93267 4.61148ZM13.0426 7.85739C12.5937 8.30633 12.5653 8.65288 12.5653 13.6874V19.0403L13.2114 19.5484C13.8627 20.0608 14.7708 20.0503 15.31 19.5241C15.4412 19.3961 15.6083 17.6584 15.6811 15.6626C15.8179 11.9129 15.9892 11.2059 16.9489 10.4283C17.5559 9.93668 19.2144 9.87296 19.8227 10.3178C20.4266 10.7594 20.6576 12.274 20.6695 15.8669C20.6808 19.2107 20.8137 19.6534 21.8837 19.9107C22.3056 20.0121 22.6877 19.9016 23.1367 19.5484L23.7828 19.0403V14.812C23.7828 10.8978 23.7429 10.5059 23.2458 9.53285C22.192 7.47051 19.3072 6.83923 17.031 8.17339C16.4126 8.53569 15.9067 8.93499 15.9067 9.06076C15.9067 9.18654 15.7993 9.28941 15.668 9.28941C15.5367 9.28941 15.4293 9.02711 15.4293 8.70634C15.4293 8.07935 14.6462 7.38005 13.9441 7.38005C13.7109 7.38005 13.3052 7.59485 13.0426 7.85739ZM42.0918 7.70536C39.7985 8.35048 38.2051 10.3534 37.9397 12.9244C37.5087 17.0999 40.0622 19.8861 44.3313 19.8985C45.8833 19.9031 46.3428 19.8014 47.5228 19.1911C49.8088 18.0087 50.5384 15.9896 48.7565 15.7769C48.3037 15.723 47.8342 15.9471 47.1206 16.5579C46.5702 17.0288 45.7125 17.5364 45.2141 17.6856C43.415 18.2247 41.6682 17.1512 41.2933 15.2762L41.146 14.5401L44.6962 14.5163C46.6488 14.5032 48.5149 14.4182 48.8431 14.3273C50.9627 13.7399 49.7923 9.50254 47.1354 8.14523C45.7745 7.44998 43.6563 7.26525 42.0918 7.70536ZM54.3793 7.81777C52.9265 8.33688 51.8857 9.23428 51.1501 10.6021C50.404 11.989 50.4102 15.4285 51.1613 16.8371C52.2475 18.8742 54.0265 19.8486 56.7192 19.8818C58.8188 19.9074 60.0226 19.5417 61.178 18.5274C62.1912 17.6378 62.5427 16.8354 62.2003 16.1953C61.8119 15.4695 60.8797 15.6409 59.5661 16.6793C58.1469 17.8011 57.0488 18.0717 55.8177 17.6032C54.8416 17.2316 53.8552 15.9743 53.8552 15.1015V14.5401H57.3004C60.6358 14.5401 61.8835 14.3413 62.2597 13.7494C62.5762 13.252 62.4604 11.4398 62.0621 10.6498C60.704 7.95763 57.398 6.73898 54.3793 7.81777ZM32.03 10.147C33.6596 10.9202 34.3162 13.8144 33.326 15.86C33.0615 16.4065 32.5732 16.9774 32.2407 17.1288C31.3863 17.518 29.9502 17.4703 29.324 17.0316C27.2902 15.6072 27.5743 11.1983 29.7724 10.0687C30.5402 9.67415 31.0722 9.69252 32.03 10.147ZM45.6528 10.1897C46.275 10.6937 46.6951 11.4787 46.6951 12.1377C46.6951 12.6074 46.565 12.6308 43.9504 12.6308C42.2226 12.6308 41.2057 12.5396 41.2057 12.3845C41.2057 11.8074 41.9138 10.5155 42.4269 10.156C43.1685 9.63644 44.9933 9.65553 45.6528 10.1897ZM58.3868 10.4231C58.783 10.7842 59.1739 11.4286 59.2555 11.8551L59.4042 12.6308H56.6297C53.5797 12.6308 53.4976 12.5823 54.2117 11.2014C55.0297 9.61997 57.0848 9.2369 58.3868 10.4231ZM70.985 10.5329C72.6896 12.1031 72.6528 15.5211 70.9167 16.8867C69.9157 17.6741 68.335 17.6006 67.4603 16.7259C65.6529 14.9184 66.1474 10.9214 68.2947 9.98322C69.0298 9.66221 70.3274 9.92714 70.985 10.5329ZM9.5819 10.2441C9.31937 10.357 8.64799 10.4567 8.09022 10.4661L7.07587 10.4828V14.6702C7.07587 18.7983 7.08422 18.8663 7.6618 19.4436C8.40025 20.1823 9.01626 20.1852 9.86687 19.4539L10.5366 18.8784L10.6151 14.4418C10.6986 9.7331 10.7056 9.76126 9.5819 10.2441Z" fill="#7B7AAF"/>
</svg>
