<svg width="71" height="20" viewBox="0 0 71 20" fill="none" xmlns="http://www.w3.org/2000/svg">
<path fill-rule="evenodd" clip-rule="evenodd" d="M7.38162 0.0748135C6.52931 0.31539 5.54045 1.30565 4.91418 2.54584C4.68512 2.99946 4.33068 4.00798 4.26732 4.38672C4.23606 4.57329 4.17453 4.69452 4.10057 4.71532C3.22705 4.96123 1.91114 5.41141 1.84982 5.48537C1.80627 5.53777 1.53268 7.41069 1.24167 9.64746C0.950731 11.8842 0.603387 14.5495 0.469788 15.5706C0.336259 16.5915 0.234479 17.4329 0.243751 17.4403C0.252952 17.4477 2.97038 17.9214 6.28248 18.493L12.3044 19.5323L14.8365 18.909C16.2291 18.5662 17.3948 18.2685 17.4271 18.2477C17.4866 18.209 15.3808 3.77787 15.2954 3.63978C15.2669 3.5937 14.9568 3.56413 14.4978 3.56378L13.7469 3.56329L13.0332 2.89648C12.6335 2.52315 12.2588 2.22975 12.1816 2.22975C12.1057 2.22975 11.9083 2.27752 11.7429 2.33589C11.5775 2.39426 11.4364 2.43373 11.4294 2.42369C11.4224 2.41357 11.3214 2.19842 11.2049 1.94548C10.8237 1.11797 10.2862 0.666387 9.57034 0.572334C9.34515 0.542762 9.12768 0.466059 9.04353 0.386475C8.669 0.0324582 7.98548 -0.0957327 7.38162 0.0748135ZM8.38474 0.737893C8.42407 0.777228 8.33746 0.87655 8.16383 0.991465C7.60217 1.36311 6.89028 2.53291 6.64408 3.48883L6.52277 3.95966L5.76136 4.19419C5.34258 4.32323 4.9795 4.40829 4.95449 4.38335C4.82448 4.25327 5.51945 2.68218 6.01282 1.99079C6.65897 1.08524 7.42994 0.574863 8.04828 0.643278C8.19782 0.659855 8.34926 0.702421 8.38474 0.737893ZM9.96327 1.38116C10.3007 1.5869 10.7616 2.27681 10.7616 2.57618C10.7616 2.6146 10.5641 2.70697 10.3226 2.78143L9.88362 2.91678L9.86451 2.69615C9.83641 2.37283 9.71497 1.58711 9.66481 1.40441C9.61178 1.21146 9.67676 1.2064 9.96327 1.38116ZM9.05674 1.63663C9.1104 1.78899 9.17256 2.1836 9.19476 2.51353L9.23522 3.11346L8.27172 3.41501C7.74174 3.58092 7.29466 3.70307 7.27815 3.68656C7.22856 3.63697 7.44034 3.09611 7.71063 2.58159C7.97122 2.08576 8.72309 1.281 8.87769 1.33249C8.92243 1.34745 9.003 1.48428 9.05674 1.63663ZM61.298 3.87747C59.9645 4.11981 58.9531 5.07151 58.4957 6.51448C58.4039 6.80423 58.3065 7.1902 58.2792 7.3722L58.2298 7.70318L57.6637 7.72341L57.0977 7.74371L56.9379 8.55148C56.85 8.99576 56.7763 9.3988 56.7739 9.44706C56.771 9.50986 56.9198 9.53486 57.2966 9.53486C57.6961 9.53486 57.8234 9.55811 57.8234 9.63123C57.8234 9.6842 57.5547 11.1507 57.2264 12.8901C56.898 14.6295 56.6293 16.0882 56.6293 16.1319C56.6293 16.1884 56.9762 16.2056 57.8389 16.1919L59.0486 16.1727L59.4865 13.8547C59.7274 12.5798 60.0098 11.0864 60.1141 10.5358L60.3036 9.53486H61.1253H61.9471L62.1157 8.63928L62.2842 7.74371L61.4546 7.72397C60.7091 7.7062 60.6284 7.69194 60.6589 7.58348C60.6775 7.51704 60.7149 7.35211 60.7419 7.21689C60.8182 6.83422 61.0913 6.34766 61.3646 6.10771C61.6659 5.84318 62.0047 5.76985 62.5056 5.8606L62.8818 5.92881L62.9476 5.67727C63.3516 4.13386 63.3645 4.05673 63.2304 3.98494C63.0903 3.90993 62.2469 3.77492 61.9677 3.78279C61.8711 3.78553 61.5697 3.82817 61.298 3.87747ZM28.9894 4.07359C28.9469 4.19497 26.7064 16.0259 26.7064 16.1284C26.7064 16.1894 27.0239 16.206 27.9161 16.1919L29.1258 16.1727L29.2599 15.4703C29.9572 11.8188 30.0593 11.3678 30.3056 10.849C30.5723 10.2874 30.9648 9.79918 31.2809 9.63566C31.4815 9.53191 31.9458 9.50129 32.147 9.57848C32.3435 9.65392 32.4662 9.99754 32.4662 10.4726C32.4662 10.7391 32.2639 11.9949 31.9746 13.5237C31.7041 14.9528 31.4829 16.1413 31.4829 16.1649C31.4829 16.2273 33.8567 16.2177 33.8952 16.1551C33.9681 16.0366 34.9373 10.792 34.9824 10.2724C35.1292 8.57726 34.5455 7.65555 33.2416 7.52343C32.7557 7.47419 31.9899 7.64502 31.5557 7.89957C31.3816 8.00156 31.0885 8.22598 30.9044 8.39814C30.7203 8.57031 30.5697 8.67159 30.5697 8.6232C30.5697 8.57487 30.7594 7.54689 30.9912 6.33888C31.223 5.13086 31.4126 4.10723 31.4126 4.06411C31.4126 3.94589 29.0307 3.95516 28.9894 4.07359ZM54.9786 4.22229C54.7118 4.34655 54.3425 4.734 54.2454 4.99129C54.2044 5.10003 54.1713 5.3529 54.172 5.55323C54.1743 6.2647 54.6309 6.72675 55.3287 6.72366C56.1622 6.72001 56.7679 6.11417 56.7694 5.28259C56.7699 4.99874 56.5009 4.48499 56.2598 4.30925C56.0133 4.12964 55.2839 4.08012 54.9786 4.22229ZM9.0934 6.167C9.23831 6.20717 9.3566 6.27812 9.35631 6.32462C9.35582 6.41881 8.80134 8.49817 8.76783 8.53174C8.7561 8.5434 8.60726 8.50182 8.43707 8.43931C7.98506 8.27333 7.01116 8.27614 6.66178 8.44443C6.16293 8.6848 5.97672 9.25621 6.27398 9.63418C6.35553 9.73786 6.71116 10.0164 7.0642 10.2532C8.46095 11.19 8.92461 11.8448 8.98867 12.9716C9.0658 14.3285 8.49649 15.3757 7.39264 15.9074C6.88424 16.1523 5.83223 16.2134 5.1381 16.0385C4.58755 15.8997 3.91956 15.5809 3.62356 15.3156L3.40426 15.1191L3.61183 14.2581L3.81932 13.3971L4.11209 13.5778C5.23349 14.2703 6.12156 14.3233 6.37653 13.713C6.58508 13.214 6.30819 12.6904 5.56777 12.1839C5.0437 11.8253 4.50628 11.2786 4.32373 10.9183C4.22953 10.7325 4.12803 10.3768 4.09804 10.1279C3.87025 8.23561 5.06323 6.62153 7.00372 6.1965C7.51718 6.08404 8.73292 6.06683 9.0934 6.167ZM24.2129 7.57709C22.4895 7.73752 21.3112 8.80049 21.2393 10.2598C21.1907 11.2473 21.5598 11.8367 22.6954 12.5856C23.4141 13.0594 23.6576 13.2955 23.7315 13.5899C23.8014 13.8683 23.6658 14.1901 23.4028 14.3698C23.1793 14.5224 23.1071 14.5334 22.5271 14.5021C21.9564 14.4714 21.5459 14.365 20.8764 14.0746C20.7937 14.0386 20.7064 14.2132 20.4695 14.8888C20.1167 15.8949 20.087 15.8236 20.9805 16.1142C21.7112 16.3517 22.9102 16.4137 23.6678 16.2532C24.731 16.0278 25.6228 15.405 25.9685 14.6463C26.302 13.9143 26.3276 13.0427 26.0322 12.4716C25.835 12.0901 25.2295 11.5101 24.6737 11.1702C23.7223 10.5885 23.4906 10.2617 23.718 9.82215C23.8868 9.4956 24.1935 9.37155 24.8096 9.38068C25.2706 9.3875 25.6895 9.47151 26.0841 9.63636C26.1797 9.67626 26.2486 9.53718 26.4889 8.81945C26.827 7.80924 26.8412 7.84577 26.0468 7.6795C25.4273 7.54984 24.8516 7.51767 24.2129 7.57709ZM39.4676 7.61214C37.3987 8.056 35.8987 9.91234 35.6249 12.3675C35.475 13.7125 35.8029 14.7782 36.5946 15.5189C37.2192 16.1031 37.8982 16.3483 38.8913 16.3483C40.1616 16.3483 41.1005 15.9502 42.021 15.0211C42.7129 14.3227 43.0953 13.6622 43.3898 12.6572C43.6354 11.8188 43.6976 10.6849 43.5355 9.99867C43.0972 8.14233 41.4636 7.18395 39.4676 7.61214ZM49.0923 7.57042C48.6034 7.69348 48.0911 7.98288 47.6413 8.39L47.1962 8.79283L47.2465 8.21559L47.2968 7.63834H46.2362C45.4484 7.63834 45.1688 7.66096 45.1495 7.72614C45.1351 7.77447 45.0414 8.3671 44.9411 9.04317C44.8408 9.71925 44.3636 12.3551 43.8806 14.9005C43.3976 17.4459 43.0025 19.54 43.0025 19.554C43.0025 19.5679 43.5496 19.5794 44.2182 19.5794H45.4339L45.7593 17.851C45.9383 16.9004 46.0957 16.1116 46.1092 16.0981C46.1227 16.0846 46.2747 16.124 46.447 16.1856C46.6194 16.2473 47.0132 16.3121 47.3223 16.3297C48.3819 16.3902 49.3928 16.0208 50.2056 15.276C51.4591 14.1275 52.139 12.4781 52.1381 10.5885C52.1372 8.67925 51.3383 7.62774 49.8159 7.53186C49.5648 7.51605 49.2391 7.5334 49.0923 7.57042ZM52.9906 11.9055C52.5561 14.2139 52.2015 16.1269 52.2024 16.1568C52.2033 16.1867 52.7491 16.2025 53.4151 16.1919L54.6262 16.1727L55.4122 12.0987C55.8444 9.85797 56.2003 7.95359 56.2029 7.86663C56.2079 7.70865 56.2074 7.70858 54.9942 7.70858H53.7805L52.9906 11.9055ZM62.7034 7.86663C62.7232 7.95359 63.0584 9.75718 63.4483 11.8747L64.1571 15.7247L63.9228 16.1148C63.5614 16.7166 62.8865 17.2937 62.1041 17.6698L61.4328 17.9926L61.7529 18.9958C62.0052 19.7867 62.0994 19.9993 62.1973 20C62.3886 20.0013 63.1146 19.6883 63.6016 19.3944C64.1789 19.0461 65.1934 18.019 65.7596 17.2095C66.5626 16.0613 67.1649 14.9104 68.8327 11.3362C69.7315 9.41004 70.4669 7.80587 70.4669 7.77138C70.4669 7.73682 69.9035 7.70858 69.215 7.70858H67.963L67.2845 9.48218C66.9113 10.4576 66.4347 11.7299 66.2253 12.3094C65.8788 13.2683 65.841 13.3409 65.8044 13.1172C65.7823 12.982 65.6513 11.7492 65.5133 10.3778C65.3753 9.0063 65.2491 7.84471 65.2328 7.79639C65.2106 7.7305 64.887 7.70858 63.9353 7.70858H62.6674L62.7034 7.86663ZM40.5058 9.53339C40.9093 9.72866 41.054 10.0105 41.0925 10.6759C41.1795 12.1795 40.5146 13.9188 39.6871 14.3524C39.4304 14.4868 38.889 14.4779 38.6474 14.3352C38.1707 14.0536 37.9821 13.218 38.1542 12.1505C38.3614 10.8656 38.9264 9.83739 39.5958 9.52756C39.9566 9.36045 40.1512 9.36172 40.5058 9.53339ZM49.1225 9.64486C49.6023 9.89302 49.7385 10.8358 49.4614 11.9916C49.0262 13.8074 47.9443 14.8372 46.9009 14.4289C46.4187 14.2402 46.433 14.3432 46.6908 12.9065C47.0056 11.1518 47.1847 10.6477 47.6941 10.0827C48.1379 9.59042 48.69 9.42121 49.1225 9.64486Z" fill="#7B7AAF"/>
</svg>
