<svg width="48" height="20" viewBox="0 0 48 20" fill="none" xmlns="http://www.w3.org/2000/svg">
<path fill-rule="evenodd" clip-rule="evenodd" d="M24.1807 0.355334L22.562 0.703711L22.547 2.03865C22.5388 2.77286 22.5513 3.39111 22.5749 3.41256C22.5985 3.434 23.2332 3.31702 23.9853 3.1526C24.7374 2.98813 25.4846 2.82567 25.6458 2.79146L25.9389 2.7293V1.36127C25.9389 0.300509 25.9232 -0.00525206 25.8691 6.79611e-05C25.8307 0.00381998 25.0709 0.163701 24.1807 0.355334ZM10.9244 1.84432C10.2337 1.99441 9.53665 2.14516 9.37551 2.17921L9.08247 2.2412L9.08342 7.76725C9.08454 13.9467 9.0712 13.7176 9.47854 14.5468C9.87891 15.3616 10.5865 15.9474 11.5014 16.2214C12.3061 16.4625 13.7075 16.387 14.5943 16.055L14.8873 15.9452V14.5773C14.8873 13.8249 14.8793 13.2093 14.8696 13.2093C14.8597 13.2093 14.7154 13.252 14.5486 13.3043C14.093 13.447 13.3054 13.436 13.0175 13.2829C12.7205 13.125 12.5647 12.949 12.4612 12.6547C12.3891 12.4496 12.3756 12.0106 12.3756 9.87022V7.32927H13.6324H14.8892L14.8743 5.88726L14.8594 4.44526L13.6175 4.43019L12.3756 4.41513V2.98819C12.3756 1.66462 12.3685 1.56163 12.2779 1.56628C12.2242 1.56908 11.6151 1.69419 10.9244 1.84432ZM3.67158 4.25609C2.33451 4.41149 1.17465 5.04787 0.574188 5.95553C-0.0629499 6.91851 -0.185019 8.33403 0.28428 9.31728C0.730081 10.2513 1.39284 10.7127 3.34555 11.4483C4.43089 11.8571 4.83087 12.0899 4.97633 12.3974C5.15678 12.7789 4.94518 13.2357 4.51769 13.3875C4.23448 13.4882 3.19083 13.4689 2.66365 13.3532C1.95334 13.1975 0.977457 12.8356 0.192965 12.4371C0.169467 12.4251 0.156908 13.1421 0.165058 14.0304L0.179849 15.6453L0.794492 15.8539C3.2447 16.6851 5.66554 16.5022 7.16336 15.3725C8.84336 14.1055 8.91201 11.3233 7.29464 10.0485C6.82093 9.67507 6.34286 9.43421 5.39662 9.09216C4.1579 8.64444 3.96985 8.56542 3.7323 8.39277C3.33969 8.10739 3.287 7.64069 3.61604 7.36287C3.83997 7.17387 4.05788 7.14116 4.86028 7.17622C5.68597 7.21234 6.60911 7.43472 7.31897 7.76842L7.79871 7.99399V6.40163C7.79871 5.52584 7.7924 4.80909 7.78476 4.80887C7.77711 4.80864 7.58242 4.7443 7.35218 4.6659C6.20193 4.27418 4.82998 4.12141 3.67158 4.25609ZM32.2371 4.24993C31.7497 4.3271 31.0646 4.61779 30.6449 4.92546L30.2646 5.20423L30.2237 5.04872C30.2012 4.9632 30.1562 4.78619 30.1238 4.65526L30.0649 4.41726H28.5879H27.111V12.2086V20L27.2924 19.9677C27.7045 19.8945 30.4281 19.3079 30.4479 19.2881C30.4596 19.2763 30.4835 18.4368 30.501 17.4225L30.5327 15.5783L30.915 15.8148C31.5588 16.213 31.9722 16.3178 32.8879 16.3146C33.5826 16.3123 33.719 16.2953 34.1159 16.1621C35.867 15.5742 36.9889 13.9558 37.3037 11.5636C37.423 10.6574 37.3822 9.21177 37.2152 8.42973C36.7584 6.28979 35.5101 4.79867 33.781 4.3276C33.4114 4.22691 32.6307 4.18765 32.2371 4.24993ZM42.3298 4.25295C40.7575 4.47079 39.4366 5.47376 38.6702 7.0318C38.1934 8.00111 37.9792 9.03257 37.9804 10.3533C37.9836 13.6817 39.5288 15.773 42.3487 16.2654C43.0664 16.3907 44.5537 16.3476 45.279 16.1804C45.9333 16.0296 46.4304 15.864 46.8279 15.6647L47.1489 15.5037V14.1605C47.1489 13.4218 47.1353 12.8173 47.1187 12.8173C47.1021 12.8173 46.9954 12.8647 46.8815 12.9227C46.56 13.0864 45.6556 13.3598 45.2232 13.4242C44.1166 13.5888 43.2256 13.5513 42.5922 13.3136C41.9899 13.0875 41.4805 12.4418 41.3724 11.7673L41.3342 11.5293H44.5717H47.8091L47.8497 11.0953C47.9012 10.5435 47.8443 9.39702 47.7333 8.75184C47.2558 5.97558 45.6404 4.33449 43.2786 4.22613C42.9667 4.21179 42.5397 4.22389 42.3298 4.25295ZM20.2735 4.38377C19.8661 4.51341 19.5961 4.68735 19.303 5.00907C19.1436 5.18412 19.0059 5.31785 18.997 5.30632C18.9881 5.29472 18.9496 5.13406 18.9116 4.94926C18.8735 4.76446 18.8297 4.56874 18.8143 4.5143C18.7883 4.42252 18.6828 4.41647 17.3531 4.4303L15.9199 4.44526L15.9057 10.2833L15.8915 16.1213H17.5662H19.241V12.1497V8.17801L19.4782 7.97064C19.6086 7.85662 19.8535 7.69714 20.0224 7.61627C20.3041 7.48137 20.388 7.46927 21.041 7.46927H21.7527L21.7527 5.94993V4.43053L21.5047 4.36792C21.1807 4.28605 20.5554 4.29411 20.2735 4.38377ZM22.5721 4.45377C22.5512 4.47477 22.5341 7.10852 22.5341 10.3066V16.1213H24.2367H25.9394L25.9252 10.2833L25.9109 4.44526L24.2605 4.43042C23.3528 4.4223 22.593 4.43277 22.5721 4.45377ZM43.7381 7.13019C44.2621 7.39664 44.6081 7.97988 44.6762 8.71158L44.7091 9.06528H42.9987C41.6673 9.06528 41.2883 9.04977 41.2887 8.99528C41.2899 8.779 41.416 8.19671 41.5083 7.98066C41.8847 7.09978 42.9095 6.70896 43.7381 7.13019ZM32.606 7.31499C33.187 7.52169 33.7256 8.26587 33.9539 9.17728C34.0918 9.72782 34.0933 10.881 33.9568 11.4397C33.7606 12.243 33.343 12.8839 32.8126 13.1957C32.614 13.3125 32.4704 13.3472 32.1066 13.3664C31.5484 13.3957 31.1283 13.287 30.7846 13.024L30.5437 12.8398L30.5067 10.3505C30.4656 7.5764 30.4392 7.78853 30.8576 7.52174C31.3265 7.2227 32.0922 7.13215 32.606 7.31499Z" fill="#7B7AAF"/>
</svg>
