<svg width="73" height="20" viewBox="0 0 73 20" fill="none" xmlns="http://www.w3.org/2000/svg">
<path fill-rule="evenodd" clip-rule="evenodd" d="M62.4962 7.79331V15.5866H63.7957H65.0952V12.8441V10.1015H65.3932H65.6911L65.7695 10.2237C65.8126 10.2909 66.0412 10.6392 66.2775 10.9976C66.5138 11.356 66.8332 11.8407 66.9871 12.0747C67.618 13.0336 67.8315 13.3579 68.1669 13.8669C68.3604 14.1606 68.6945 14.6677 68.9092 14.9938L69.2998 15.5866H70.7714H72.2431L72.2022 15.5236C72.1798 15.489 72.0502 15.2983 71.9142 15.0998C71.7783 14.9014 71.3148 14.223 70.8841 13.5924C70.4534 12.9618 70.009 12.3114 69.8966 12.1471C69.7842 11.9828 69.6036 11.7181 69.4952 11.5588C69.3869 11.3995 69.2476 11.1958 69.1857 11.1062C69.1238 11.0166 69.0034 10.8413 68.9181 10.7167C68.8328 10.5921 68.713 10.417 68.6517 10.3275C68.275 9.77703 68.1054 9.52345 68.1061 9.51185C68.1065 9.50459 68.2151 9.44852 68.3473 9.38726C69.7872 8.72016 70.8791 7.37761 71.2777 5.78404C71.3945 5.31706 71.4484 4.93902 71.4484 4.58734V4.41728H70.1489H68.8494V4.52398C68.8494 4.83569 68.7815 5.25993 68.6856 5.54798C68.4374 6.29296 68.0096 6.81058 67.3177 7.20298C67.0831 7.33605 66.7153 7.48563 66.443 7.55875C66.1238 7.64445 65.5115 7.73002 65.2171 7.73005L65.0953 7.73007L65.0908 3.86968L65.0862 0.00928667L63.7912 0.00463428L62.4962 0V7.79331ZM19.4768 4.11131C19.227 4.13182 18.9664 4.1742 18.6375 4.24779C18.2704 4.32992 18.2117 4.34739 17.8705 4.47576C17.1596 4.74317 16.5813 5.11199 16.0328 5.64771C15.3478 6.31683 14.8936 7.06442 14.5807 8.03782C14.5407 8.16227 14.5023 8.29147 14.4953 8.32494C14.4846 8.3761 14.4787 8.38186 14.4582 8.36115C14.3856 8.28767 13.9993 7.36778 13.7837 6.75479C13.6287 6.31419 13.277 5.1075 13.1772 4.67404C13.1619 4.60749 13.1412 4.52252 13.1313 4.48517L13.1132 4.41728H10.8488H8.58433V7.32819C8.58433 10.6315 8.58239 10.6869 8.44661 11.2956C8.29533 11.9736 8.00517 12.5358 7.60364 12.9286C7.2016 13.3219 6.71495 13.5339 6.07019 13.5967C5.72391 13.6303 5.26482 13.573 4.90236 13.4509C4.73256 13.3937 4.42275 13.2279 4.26858 13.1118C3.67795 12.6671 3.28221 11.9883 3.10627 11.1183C3.00108 10.5981 3.00301 10.6731 3.00992 7.40904L3.01626 4.41728H1.71174H0.407227L0.412858 7.56262C0.419012 11.0007 0.414013 10.8294 0.525248 11.414C0.853412 13.1388 1.81471 14.5287 3.2148 15.3025C4.05542 15.7671 5.11027 15.9917 6.16796 15.9314C6.58256 15.9078 6.80781 15.8748 7.17374 15.7843C8.05266 15.5667 8.75915 15.1904 9.40179 14.5975C10.253 13.8121 10.8747 12.6095 11.0756 11.3597C11.175 10.7407 11.1705 10.8643 11.179 8.52659L11.1868 6.34522L11.222 6.47194C11.7397 8.33986 12.5691 10.2079 13.5166 11.6402C13.5858 11.7448 13.6698 11.8681 13.7033 11.9142C13.7369 11.9604 13.7643 12.0178 13.7643 12.0418C13.7643 12.0658 13.7234 12.3091 13.6735 12.5824C13.6235 12.8558 13.5629 13.1992 13.5388 13.3457C13.4976 13.5967 13.4512 13.8613 13.1856 15.3603C13.1256 15.6989 13.0729 16.0003 13.0686 16.0301C13.0642 16.06 13.0077 16.3859 12.943 16.7542C12.8783 17.1226 12.7719 17.7295 12.7065 18.1029C12.6411 18.4763 12.5398 19.0502 12.4812 19.3783C12.4227 19.7064 12.3813 19.9814 12.3892 19.9894C12.3972 19.9974 12.9961 20.0018 13.7203 19.9993L15.0368 19.9946L15.1476 19.3248C15.2086 18.9564 15.3129 18.321 15.3794 17.9128C15.9039 14.6956 15.9552 14.3836 15.9619 14.3744C15.9691 14.3645 15.9645 14.3613 16.1942 14.5381C16.6826 14.9139 17.3467 15.3039 17.8299 15.4986C18.2699 15.6758 18.7635 15.8122 19.2003 15.8771C19.7235 15.9548 20.4616 15.9579 20.9624 15.8845C22.2481 15.6961 23.4065 15.1092 24.288 14.1999C25.1717 13.2881 25.705 12.1479 25.8874 10.7804C25.9316 10.4491 25.9316 9.59095 25.8875 9.26281C25.7024 7.88541 25.1771 6.76587 24.2778 5.83195C23.8221 5.35877 23.2768 4.96236 22.6895 4.67738C22.076 4.37969 21.3133 4.16837 20.641 4.10983C20.4006 4.08888 19.7397 4.08974 19.4768 4.11131ZM47.4976 4.10386C47.1742 4.12811 46.5322 4.25297 46.2149 4.35331C44.4807 4.90184 43.1446 6.19569 42.5252 7.92634C42.4569 8.11707 42.3423 8.53856 42.2924 8.7826C42.2197 9.13799 42.1859 9.51789 42.1848 9.99291C42.1832 10.6704 42.2331 11.0751 42.3919 11.6734C42.8221 13.2939 43.9158 14.6286 45.404 15.3489C45.7566 15.5196 46.1086 15.6483 46.4779 15.7414C47.0412 15.8834 47.4194 15.9306 47.994 15.9305C48.5774 15.9304 48.9418 15.8851 49.5069 15.7423C51.7953 15.1642 53.4735 13.2298 53.7726 10.8256C53.8189 10.4537 53.8191 9.58161 53.7731 9.22354C53.5394 7.40708 52.5663 5.86374 51.0773 4.948C50.3282 4.48734 49.4227 4.18778 48.5445 4.1101C48.3543 4.09328 47.6913 4.08934 47.4976 4.10386ZM60.3664 4.26479C60.3317 4.26881 60.2018 4.28072 60.0777 4.29127C59.1154 4.37308 58.1959 4.81171 57.6353 5.45645L57.5147 5.59512V5.0062V4.41728H56.2333H54.9518V10.002V15.5866H56.2502H57.5486L57.556 12.8305C57.5612 10.9066 57.5698 10.0115 57.5845 9.86619C57.6415 9.30462 57.7204 8.86743 57.8161 8.58204C58.0441 7.90281 58.3961 7.46668 58.9418 7.18723C59.1811 7.06473 59.348 7.00486 59.6253 6.94208C60.0504 6.84581 60.1729 6.83461 60.8041 6.8343L61.3952 6.83399V5.56335C61.3952 4.68892 61.3893 4.28901 61.3761 4.28086C61.3547 4.26758 60.4649 4.25342 60.3664 4.26479ZM25.8493 4.46696C25.8651 4.53825 26.204 5.8598 26.4703 6.8883C26.5297 7.1173 26.6398 7.54497 26.7151 7.83869C26.918 8.63017 27.0398 9.10341 27.1576 9.55844C27.2156 9.78246 27.329 10.2224 27.4096 10.536C27.6575 11.5007 27.7661 11.9222 27.8781 12.3553C27.9373 12.5843 28.0383 12.9753 28.1025 13.2242C28.1667 13.4731 28.253 13.8071 28.2943 13.9664C28.3356 14.1257 28.4041 14.3946 28.4467 14.5638C28.4892 14.7331 28.5583 15.0019 28.6002 15.1612C28.6421 15.3205 28.6839 15.4814 28.6932 15.5187L28.7102 15.5866L30.2752 15.5864L31.8403 15.5863L31.9631 15.1384C32.0307 14.8921 32.1347 14.5113 32.1943 14.2923C32.254 14.0732 32.3468 13.7352 32.4007 13.541C32.4545 13.3469 32.5222 13.0984 32.551 12.9889C32.6101 12.7648 32.7369 12.3001 32.8425 11.9208C32.8814 11.7814 32.9491 11.533 32.993 11.3687C33.0804 11.0418 33.1583 10.7569 33.5618 9.2869C33.6314 9.03301 33.7008 8.77615 33.7159 8.71612C33.731 8.65608 33.779 8.48094 33.8226 8.32692C33.8662 8.17288 33.9211 7.97151 33.9446 7.87942C33.9681 7.78733 33.9915 7.71201 33.9967 7.71204C34.0019 7.71208 34.0406 7.84446 34.0827 8.00621C34.1575 8.29364 34.2071 8.47786 34.4034 9.19639C34.5219 9.63004 34.6223 10.0016 34.7459 10.4636C34.847 10.8414 34.9297 11.1477 35.098 11.767C35.1562 11.981 35.2566 12.3517 35.321 12.5906C35.3855 12.8296 35.4724 13.1514 35.5143 13.3057C35.5562 13.46 35.6329 13.7451 35.6849 13.9393C35.8135 14.4199 35.9124 14.785 36.0321 15.22L36.1329 15.5866H37.698H39.2631L39.2841 15.5006C39.2957 15.4534 39.3525 15.2436 39.4103 15.0345C39.4681 14.8254 39.5686 14.4588 39.6338 14.2199C39.8328 13.4894 39.9634 13.0103 40.0976 12.5182C40.1682 12.2594 40.2737 11.8724 40.332 11.6584C40.3903 11.4443 40.4959 11.0573 40.5667 10.7985C40.6375 10.5396 40.743 10.1527 40.8013 9.9386C40.8596 9.72453 40.9641 9.34166 41.0336 9.08777C41.1031 8.83388 41.214 8.42657 41.28 8.18264C41.346 7.93871 41.4479 7.56398 41.5064 7.34992C41.6207 6.932 41.8029 6.26256 41.977 5.62111C42.0365 5.40207 42.1334 5.0495 42.1923 4.83765C42.2513 4.62577 42.2996 4.44448 42.2996 4.43475C42.2996 4.42335 41.8043 4.41872 40.9062 4.4217L39.5129 4.42634L39.4718 4.59831C39.328 5.19986 39.142 5.9735 39.0497 6.35427C38.8765 7.06846 38.736 7.65042 38.6095 8.17811C38.4299 8.92751 38.2691 9.59718 38.1401 10.1332C38.0761 10.3995 37.9622 10.8741 37.887 11.1877C37.8118 11.5013 37.7292 11.846 37.7033 11.9538C37.6774 12.0615 37.6503 12.1429 37.6431 12.1348C37.6358 12.1266 37.6134 12.0548 37.5933 11.9751C37.5334 11.7387 37.3489 11.0193 37.1916 10.4093C37.1107 10.0956 36.9955 9.6476 36.9356 9.41362C36.8756 9.17964 36.7743 8.78455 36.7105 8.53564C36.6466 8.28673 36.5548 7.9283 36.5065 7.73912C36.4582 7.54995 36.3524 7.13857 36.2714 6.82494C36.1904 6.51131 36.0848 6.09993 36.0368 5.91075C35.9887 5.72158 35.8837 5.3113 35.8035 4.99905C35.7232 4.68678 35.6576 4.42813 35.6576 4.42429C35.6576 4.42043 34.9115 4.41728 33.9996 4.41728H32.3416L32.2669 4.7024C32.2259 4.85923 32.14 5.19117 32.076 5.44009C32.0121 5.689 31.9023 6.11667 31.832 6.39048C31.7617 6.66428 31.6709 7.01456 31.6301 7.16889C31.5894 7.32322 31.5212 7.58797 31.4786 7.75723C31.436 7.92649 31.3389 8.30528 31.2627 8.599C31.1266 9.12376 31.0154 9.55593 30.8039 10.3821C30.7452 10.6111 30.6306 11.0551 30.5491 11.3687C30.4676 11.6823 30.3873 11.9914 30.3707 12.0556L30.3404 12.1722L30.2919 11.9831C30.2652 11.8792 30.2267 11.7208 30.2062 11.6312C30.1713 11.478 30.1218 11.2706 29.8358 10.0789C29.7718 9.81257 29.6667 9.3747 29.6022 9.10588C29.5377 8.83705 29.4321 8.39716 29.3676 8.12833C29.303 7.85951 29.197 7.41758 29.1319 7.14626C29.0669 6.87494 28.9657 6.45338 28.9071 6.20945C28.7755 5.66183 28.5563 4.74465 28.5133 4.56211L28.4814 4.42634L27.1598 4.4217L25.8383 4.41705L25.8493 4.46696ZM20.676 6.49994C21.0815 6.5698 21.4746 6.72737 21.8276 6.96158C22.1086 7.14794 22.4864 7.5239 22.6773 7.8069C22.9934 8.27558 23.2084 8.87072 23.2846 9.48762C23.3165 9.74642 23.3207 10.2417 23.2931 10.496C23.2449 10.9396 23.1148 11.4039 22.9332 11.7804C22.6 12.4711 22.1167 12.9698 21.4802 13.2796C21.0517 13.4882 20.7064 13.5729 20.2168 13.5897C19.7985 13.6041 19.3479 13.5464 18.9643 13.4295C18.4638 13.2768 17.8909 12.9587 17.4192 12.5714C17.0412 12.261 16.4175 11.5519 16.4175 11.4324C16.4175 11.2728 16.5199 10.658 16.6347 10.1287C16.9281 8.7747 17.4231 7.75922 18.071 7.18182C18.5461 6.75847 19.0687 6.53224 19.7295 6.46386C19.9751 6.43845 20.4168 6.45528 20.676 6.49994ZM48.3098 6.46321C48.4041 6.47301 48.5666 6.49782 48.6708 6.51837C49.4735 6.67664 50.2092 7.20186 50.6595 7.93829C50.7925 8.15585 50.8256 8.22285 50.9361 8.49944C51.2026 9.16665 51.2805 9.98824 51.1508 10.7623C51.007 11.6204 50.6102 12.3603 50.0264 12.8589C49.5145 13.2962 48.9401 13.532 48.2303 13.596C47.7298 13.6412 47.1525 13.5402 46.6837 13.3257C45.9318 12.9816 45.3688 12.3659 45.0524 11.542C44.9249 11.21 44.8707 10.9832 44.8168 10.5557C44.7717 10.1989 44.7868 9.60949 44.8502 9.2507C44.985 8.48765 45.2927 7.85891 45.7703 7.37052C46.1001 7.0333 46.4217 6.82284 46.884 6.6417C47.2833 6.48522 47.8448 6.41493 48.3098 6.46321Z" fill="#7B7AAF"/>
</svg>
