<svg display="none" xmlns="http://www.w3.org/2000/svg">
    <symbol id="telegram" viewBox="0 0 40 40">
        <path fill-rule="evenodd" clip-rule="evenodd" d="M9.02163 0.0413273C6.93128 0.30738 5.12705 1.13071 3.54874 2.53885C2.73658 3.26348 1.93997 4.29955 1.43452 5.2887C0.652202 6.81962 0.307805 8.3564 0.363805 10.0664C0.401607 11.2197 0.597842 12.1953 1.00562 13.2568C1.12863 13.5771 1.5163 14.3913 1.64076 14.5907C1.68578 14.6629 1.5944 14.9592 0.845429 17.17C0.380051 18.5437 -0.000390216 19.7073 3.00375e-07 19.7557C0.00093754 19.87 0.132424 20 0.247119 20C0.296754 20 1.50349 19.629 2.9288 19.1755L5.52022 18.351L5.89438 18.5282C6.7912 18.953 7.57782 19.2018 8.57777 19.3769C9.18893 19.4839 10.4629 19.5218 11.1573 19.4537C14.169 19.1582 16.9516 17.4275 18.5384 14.8629C19.8188 12.7933 20.2796 10.3345 19.8349 7.94431C19.4443 5.84458 18.2672 3.79496 16.6563 2.40954C15.1984 1.15562 13.5195 0.376767 11.6381 0.0815519C11.0818 -0.0057382 9.57367 -0.0289191 9.02163 0.0413273ZM11.3014 2.11616C14.4586 2.59057 16.9913 4.90338 17.7221 7.97953C17.8985 8.72202 17.9388 9.14147 17.9145 9.98493C17.8925 10.75 17.8445 11.0932 17.6699 11.7346C16.6053 15.6466 12.6414 18.0978 8.66896 17.3006C7.71282 17.1087 7.14395 16.8836 5.95608 16.2271L5.76082 16.1192L4.45243 16.5351C3.73279 16.7638 3.13428 16.9509 3.12237 16.9509C3.11046 16.9509 3.29084 16.3848 3.52316 15.6928C3.78348 14.9176 3.93629 14.4053 3.92133 14.358C3.90798 14.3159 3.79172 14.1213 3.66304 13.9255C2.84054 12.6743 2.42066 11.253 2.42269 9.72686C2.42546 7.63127 3.2548 5.68767 4.77012 4.22559C6.12092 2.92218 7.65701 2.24231 9.70504 2.0413C9.97855 2.01444 10.9177 2.0585 11.3014 2.11616ZM7.20573 5.17088C6.86809 5.22307 6.41037 5.35445 6.23674 5.44898C5.86025 5.65397 5.51292 6.18619 5.34539 6.81477C5.2314 7.24247 5.23159 7.9746 5.34582 8.40331C5.61094 9.39826 6.54283 10.8025 7.71114 11.9674C8.68926 12.9427 9.56882 13.5149 10.7654 13.9543C12.5212 14.5991 13.4169 14.599 14.3778 13.9536C14.9932 13.5403 15.2744 13.0011 15.2849 12.2144C15.2887 11.9296 15.2766 11.858 15.2089 11.7649C15.1122 11.6318 14.7658 11.4444 13.73 10.9645C12.8617 10.5622 12.6552 10.5122 12.4348 10.6509C12.3683 10.6928 12.1464 10.9356 11.9417 11.1906C11.395 11.8714 11.4784 11.8312 11.0418 11.6242C10.3707 11.306 9.74038 10.8316 9.09657 10.1602C8.77537 9.82521 8.20487 9.11774 8.20241 9.0514C8.20194 9.03889 8.31538 8.89817 8.45452 8.73868C8.59363 8.57915 8.77139 8.32783 8.84953 8.18018C9.04502 7.81085 9.03183 7.73404 8.59289 6.68953C8.1311 5.59064 8.03761 5.40785 7.87309 5.28225C7.73476 5.17663 7.46238 5.13117 7.20573 5.17088Z" fill="#5351B8"/>
    </symbol>
    <symbol id="viber" viewBox="0 0 40 40">
        <path fill-rule="evenodd" clip-rule="evenodd" d="M20 10C20 15.5225 15.5225 20 10 20C4.4775 20 0 15.5225 0 10C0 4.4775 4.4775 0 10 0C15.5225 0 20 4.4775 20 10ZM10.3583 7.3825C9.38583 7.78667 7.44167 8.62417 4.52667 9.89417C4.05333 10.0825 3.805 10.2667 3.7825 10.4467C3.74417 10.7517 4.12583 10.8717 4.64417 11.0342C4.715 11.0567 4.78833 11.0792 4.86333 11.1042C5.37417 11.27 6.06083 11.4642 6.4175 11.4717C6.74167 11.4783 7.10333 11.345 7.5025 11.0717C10.2258 9.2325 11.6317 8.30333 11.72 8.28333C11.7825 8.26917 11.8692 8.25083 11.9275 8.30333C11.9858 8.355 11.98 8.45333 11.9742 8.48C11.9358 8.64083 10.4408 10.0317 9.66583 10.7517C9.42417 10.9758 9.25333 11.135 9.21833 11.1717C9.14 11.2525 9.06 11.33 8.98333 11.4042C8.50833 11.8608 8.15333 12.2042 9.00333 12.7642C9.41167 13.0333 9.73833 13.2558 10.0642 13.4775C10.42 13.72 10.775 13.9617 11.235 14.2633C11.3517 14.34 11.4633 14.4192 11.5725 14.4967C11.9867 14.7925 12.3592 15.0575 12.8192 15.0158C13.0858 14.9908 13.3625 14.74 13.5025 13.9908C13.8333 12.2192 14.485 8.3825 14.6358 6.80083C14.645 6.66951 14.6394 6.53757 14.6192 6.4075C14.607 6.30244 14.5559 6.20578 14.4758 6.13667C14.3567 6.03917 14.1717 6.01833 14.0883 6.02C13.7125 6.02667 13.1358 6.2275 10.3583 7.3825Z" fill="#5351B8"/>
    </symbol>
</svg>








